  0
SECTION
  2
HEADER
  9
$MEASUREMENT
  70
  1
  9
$INSUNITS
  70
  4
  0
ENDSEC
  0
SECTION
  2
TABLES
  0
TABLE
  2
LTYPE
 70
     1
  0
LTYPE
  2
CONTINUOUS
 70
    64
  3
Ausgezogene Linie
 72
    65
 73
     0
 40
0.0
  0
ENDTAB
  0
TABLE
  2
LAYER
 70
     3
  0
LAYER
  2
Kontur
 70
    64
 62
     7
  6
CONTINUOUS
  0
LAYER
  2
Gravur
 70
    64
 62
     7
  6
CONTINUOUS
  0
LAYER
  2
Bezugspunkte
 70
    64
 62
     1
  6
CONTINUOUS
  0
ENDTAB
  0
TABLE
  2
STYLE
 70
     1
  0
STYLE
  2
TXT
 70
    64
 40
0.0
 41
1.0
 50
0.0
 71
     0
 42
3.500000
  3
TXT
  0
ENDTAB
  0
ENDSEC
  0
SECTION
  2
BLOCKS
  0
ENDSEC
  0
SECTION
  2
ENTITIES
  0
LINE
  8
Kontur
 62
   7
 39
0.100
  6
CONTINUOUS
 10
40.30000
 20
128.40000
 30
 0
 11
40.30000
 21
0.00000
  0
LINE
  8
Kontur
 62
   7
 39
0.100
  6
CONTINUOUS
 10
40.30000
 20
0.00000
 30
 0
 11
0.00000
 21
0.00000
  0
LINE
  8
Kontur
 62
   7
 39
0.100
  6
CONTINUOUS
 10
0.00000
 20
0.00000
 30
 0
 11
0.00000
 21
128.40000
  0
LINE
  8
Kontur
 62
   7
 39
0.100
  6
CONTINUOUS
 10
0.00000
 20
128.40000
 30
 0
 11
40.30000
 21
128.40000
  0
ARC
  8
Kontur
 62
   7
 39
0.100
  6
CONTINUOUS
 10
0.35355
 20
122.74855
 30
 0
 40
0.50000
 50
135.00000
 51
314.99999
  0
LINE
  8
Kontur
 62
   7
 39
0.100
  6
CONTINUOUS
 10
0.70711
 20
122.39500
 30
 0
 11
39.59289
 21
122.39500
  0
ARC
  8
Kontur
 62
   7
 39
0.100
  6
CONTINUOUS
 10
39.94645
 20
122.74855
 30
 0
 40
0.50000
 50
225.00000
 51
404.99999
  0
LINE
  8
Kontur
 62
   7
 39
0.100
  6
CONTINUOUS
 10
40.30000
 20
123.10211
 30
 0
 11
40.30000
 21
127.68789
  0
ARC
  8
Kontur
 62
   7
 39
0.100
  6
CONTINUOUS
 10
39.94645
 20
128.04145
 30
 0
 40
0.50000
 50
315.00000
 51
494.99999
  0
LINE
  8
Kontur
 62
   7
 39
0.100
  6
CONTINUOUS
 10
39.59289
 20
128.39500
 30
 0
 11
0.70711
 21
128.39500
  0
ARC
  8
Kontur
 62
   7
 39
0.100
  6
CONTINUOUS
 10
0.35355
 20
128.04145
 30
 0
 40
0.50000
 50
45.00000
 51
224.99999
  0
LINE
  8
Kontur
 62
   7
 39
0.100
  6
CONTINUOUS
 10
0.00000
 20
127.68789
 30
 0
 11
0.00000
 21
123.10211
  0
ARC
  8
Kontur
 62
   7
 39
0.100
  6
CONTINUOUS
 10
0.35355
 20
0.35355
 30
 0
 40
0.50000
 50
135.00000
 51
314.99999
  0
LINE
  8
Kontur
 62
   7
 39
0.100
  6
CONTINUOUS
 10
0.70711
 20
0.00000
 30
 0
 11
39.59289
 21
0.00000
  0
ARC
  8
Kontur
 62
   7
 39
0.100
  6
CONTINUOUS
 10
39.94645
 20
0.35355
 30
 0
 40
0.50000
 50
225.00000
 51
404.99999
  0
LINE
  8
Kontur
 62
   7
 39
0.100
  6
CONTINUOUS
 10
40.30000
 20
0.70711
 30
 0
 11
40.30000
 21
5.29289
  0
ARC
  8
Kontur
 62
   7
 39
0.100
  6
CONTINUOUS
 10
39.94645
 20
5.64645
 30
 0
 40
0.50000
 50
315.00000
 51
494.99999
  0
LINE
  8
Kontur
 62
   7
 39
0.100
  6
CONTINUOUS
 10
39.59289
 20
6.00000
 30
 0
 11
0.70711
 21
6.00000
  0
ARC
  8
Kontur
 62
   7
 39
0.100
  6
CONTINUOUS
 10
0.35355
 20
5.64645
 30
 0
 40
0.50000
 50
45.00000
 51
224.99999
  0
LINE
  8
Kontur
 62
   7
 39
0.100
  6
CONTINUOUS
 10
0.00000
 20
5.29289
 30
 0
 11
0.00000
 21
0.70711
  0
LINE
  8
Gravur
 62
   255
 39
0.400
  6
CONTINUOUS
 10
2.05733
 20
119.65333
 30
 0
 11
3.97400
 21
119.65333
  0
LINE
  8
Gravur
 62
   255
 39
0.400
  6
CONTINUOUS
 10
1.67400
 20
118.69500
 30
 0
 11
3.01567
 21
122.14500
  0
LINE
  8
Gravur
 62
   255
 39
0.400
  6
CONTINUOUS
 10
3.01567
 20
122.14500
 30
 0
 11
4.35733
 21
118.69500
  0
LINE
  8
Gravur
 62
   255
 39
0.400
  6
CONTINUOUS
 10
5.27800
 20
118.69500
 30
 0
 11
5.27800
 21
120.99500
  0
LINE
  8
Gravur
 62
   255
 39
0.400
  6
CONTINUOUS
 10
5.27800
 20
120.99500
 30
 0
 11
5.27800
 21
120.03667
  0
ARC
  8
Gravur
 62
   255
 39
0.400
  6
CONTINUOUS
 10
6.23633
 20
120.03667
 30
 0
 40
0.95833
 50
0.00000
 51
180.00000
  0
LINE
  8
Gravur
 62
   255
 39
0.400
  6
CONTINUOUS
 10
7.19467
 20
120.03667
 30
 0
 11
7.19467
 21
118.69500
  0
LINE
  8
Gravur
 62
   255
 39
0.400
  6
CONTINUOUS
 10
8.11500
 20
119.65233
 30
 0
 11
8.11500
 21
120.03567
  0
ARC
  8
Gravur
 62
   255
 39
0.400
  6
CONTINUOUS
 10
9.07333
 20
120.03567
 30
 0
 40
0.95833
 50
0.00000
 51
180.00000
  0
LINE
  8
Gravur
 62
   255
 39
0.400
  6
CONTINUOUS
 10
10.03167
 20
120.03567
 30
 0
 11
10.03167
 21
119.65233
  0
ARC
  8
Gravur
 62
   255
 39
0.400
  6
CONTINUOUS
 10
9.07333
 20
119.65233
 30
 0
 40
0.95833
 50
-180.00000
 51
0.00000
  0
LINE
  8
Gravur
 62
   255
 39
0.400
  6
CONTINUOUS
 10
10.95200
 20
122.14400
 30
 0
 11
10.95200
 21
121.95233
  0
LINE
  8
Gravur
 62
   255
 39
0.400
  6
CONTINUOUS
 10
10.95200
 20
120.99400
 30
 0
 11
10.95200
 21
118.69400
  0
LINE
  8
Gravur
 62
   255
 39
0.400
  6
CONTINUOUS
 10
11.87200
 20
122.14400
 30
 0
 11
11.87200
 21
118.69400
  0
LINE
  8
Gravur
 62
   255
 39
0.400
  6
CONTINUOUS
 10
11.87200
 20
118.69400
 30
 0
 11
11.87200
 21
119.46067
  0
LINE
  8
Gravur
 62
   255
 39
0.400
  6
CONTINUOUS
 10
11.87200
 20
119.46067
 30
 0
 11
13.78867
 21
120.99400
  0
LINE
  8
Gravur
 62
   255
 39
0.400
  6
CONTINUOUS
 10
13.78867
 20
120.99400
 30
 0
 11
12.63867
 21
120.07400
  0
LINE
  8
Gravur
 62
   255
 39
0.400
  6
CONTINUOUS
 10
12.63867
 20
120.07400
 30
 0
 11
13.78867
 21
118.69400
  0
LINE
  8
Gravur
 62
   255
 39
0.400
  6
CONTINUOUS
 10
14.70900
 20
122.14400
 30
 0
 11
14.70900
 21
121.95233
  0
LINE
  8
Gravur
 62
   255
 39
0.400
  6
CONTINUOUS
 10
14.70900
 20
120.99400
 30
 0
 11
14.70900
 21
118.69400
  0
ARC
  8
Gravur
 62
   255
 39
0.400
  6
CONTINUOUS
 10
16.49961
 20
119.96934
 30
 0
 40
1.30242
 50
228.05192
 51
293.02344
  0
ARC
  8
Gravur
 62
   255
 39
0.400
  6
CONTINUOUS
 10
16.81727
 20
119.22348
 30
 0
 40
0.49173
 50
292.94873
 51
431.82316
  0
LINE
  8
Gravur
 62
   255
 39
0.400
  6
CONTINUOUS
 10
16.97067
 20
119.69067
 30
 0
 11
15.93567
 21
120.03567
  0
ARC
  8
Gravur
 62
   255
 39
0.400
  6
CONTINUOUS
 10
16.07374
 20
120.45497
 30
 0
 40
0.44145
 50
119.10762
 51
251.77304
  0
ARC
  8
Gravur
 62
   255
 39
0.400
  6
CONTINUOUS
 10
16.52713
 20
119.65845
 30
 0
 40
1.35795
 50
54.50145
 51
119.47297
  0
LINE
  8
Gravur
 62
   255
 39
0.400
  6
CONTINUOUS
 10
20.68900
 20
118.69400
 30
 0
 11
20.68900
 21
122.14400
  0
LINE
  8
Gravur
 62
   255
 39
0.400
  6
CONTINUOUS
 10
20.68900
 20
122.14400
 30
 0
 11
22.98900
 21
118.69400
  0
LINE
  8
Gravur
 62
   255
 39
0.400
  6
CONTINUOUS
 10
22.98900
 20
118.69400
 30
 0
 11
22.98900
 21
122.14400
  0
LINE
  8
Gravur
 62
   255
 39
0.400
  6
CONTINUOUS
 10
23.90900
 20
119.65233
 30
 0
 11
23.90900
 21
120.03567
  0
ARC
  8
Gravur
 62
   255
 39
0.400
  6
CONTINUOUS
 10
24.86733
 20
120.03567
 30
 0
 40
0.95833
 50
0.00000
 51
180.00000
  0
LINE
  8
Gravur
 62
   255
 39
0.400
  6
CONTINUOUS
 10
25.82567
 20
120.03567
 30
 0
 11
25.82567
 21
119.65233
  0
ARC
  8
Gravur
 62
   255
 39
0.400
  6
CONTINUOUS
 10
24.86733
 20
119.65233
 30
 0
 40
0.95833
 50
-180.00000
 51
0.00000
  0
LINE
  8
Gravur
 62
   255
 39
0.400
  6
CONTINUOUS
 10
26.74500
 20
118.69400
 30
 0
 11
26.74500
 21
120.99400
  0
LINE
  8
Gravur
 62
   255
 39
0.400
  6
CONTINUOUS
 10
26.74500
 20
120.99400
 30
 0
 11
26.74500
 21
120.22733
  0
ARC
  8
Gravur
 62
   255
 39
0.400
  6
CONTINUOUS
 10
27.51167
 20
120.22733
 30
 0
 40
0.76667
 50
0.00000
 51
180.00000
  0
LINE
  8
Gravur
 62
   255
 39
0.400
  6
CONTINUOUS
 10
28.27833
 20
120.22733
 30
 0
 11
28.27833
 21
118.69400
  0
LINE
  8
Gravur
 62
   255
 39
0.400
  6
CONTINUOUS
 10
28.27833
 20
118.69400
 30
 0
 11
28.27833
 21
120.22733
  0
ARC
  8
Gravur
 62
   255
 39
0.400
  6
CONTINUOUS
 10
29.04500
 20
120.22733
 30
 0
 40
0.76667
 50
0.00000
 51
180.00000
  0
LINE
  8
Gravur
 62
   255
 39
0.400
  6
CONTINUOUS
 10
29.81167
 20
120.22733
 30
 0
 11
29.81167
 21
118.69400
  0
LINE
  8
Gravur
 62
   255
 39
0.400
  6
CONTINUOUS
 10
32.72433
 20
120.99300
 30
 0
 11
32.72433
 21
119.65133
  0
ARC
  8
Gravur
 62
   255
 39
0.400
  6
CONTINUOUS
 10
31.72767
 20
119.65133
 30
 0
 40
0.99667
 50
-180.00000
 51
0.00000
  0
LINE
  8
Gravur
 62
   255
 39
0.400
  6
CONTINUOUS
 10
30.73100
 20
119.65133
 30
 0
 11
30.73100
 21
120.03467
  0
ARC
  8
Gravur
 62
   255
 39
0.400
  6
CONTINUOUS
 10
31.72767
 20
120.03467
 30
 0
 40
0.99667
 50
0.00000
 51
180.00000
  0
LINE
  8
Gravur
 62
   255
 39
0.400
  6
CONTINUOUS
 10
32.72433
 20
120.03467
 30
 0
 11
32.72433
 21
119.11467
  0
ARC
  8
Gravur
 62
   255
 39
0.400
  6
CONTINUOUS
 10
33.28011
 20
119.16621
 30
 0
 40
0.55816
 50
185.29897
 51
260.11981
  0
LINE
  8
Gravur
 62
   255
 39
0.400
  6
CONTINUOUS
 10
36.02067
 20
122.14200
 30
 0
 11
36.02067
 21
119.65033
  0
ARC
  8
Gravur
 62
   255
 39
0.400
  6
CONTINUOUS
 10
35.06233
 20
119.61200
 30
 0
 40
0.95910
 50
-177.70939
 51
2.29061
  0
LINE
  8
Gravur
 62
   255
 39
0.400
  6
CONTINUOUS
 10
34.10400
 20
119.57367
 30
 0
 11
34.10400
 21
120.03367
  0
ARC
  8
Gravur
 62
   255
 39
0.400
  6
CONTINUOUS
 10
35.06233
 20
120.03367
 30
 0
 40
0.95833
 50
0.00000
 51
180.00000
  0
LINE
  8
Gravur
 62
   255
 39
0.400
  6
CONTINUOUS
 10
36.02067
 20
120.03367
 30
 0
 11
36.02067
 21
118.69200
  0
ARC
  8
Gravur
 62
   255
 39
0.400
  6
CONTINUOUS
 10
37.81061
 20
119.96634
 30
 0
 40
1.30242
 50
228.05192
 51
293.02344
  0
ARC
  8
Gravur
 62
   255
 39
0.400
  6
CONTINUOUS
 10
38.12827
 20
119.22048
 30
 0
 40
0.49173
 50
292.94873
 51
431.82316
  0
LINE
  8
Gravur
 62
   255
 39
0.400
  6
CONTINUOUS
 10
38.28167
 20
119.68767
 30
 0
 11
37.24667
 21
120.03267
  0
ARC
  8
Gravur
 62
   255
 39
0.400
  6
CONTINUOUS
 10
37.38474
 20
120.45197
 30
 0
 40
0.44145
 50
119.10762
 51
251.77304
  0
ARC
  8
Gravur
 62
   255
 39
0.400
  6
CONTINUOUS
 10
37.83813
 20
119.65545
 30
 0
 40
1.35795
 50
54.50145
 51
119.47297
  0
LINE
  8
Gravur
 62
   7
 39
0.600
  6
CONTINUOUS
 10
11.21633
 20
117.30000
 30
 0
 11
12.41078
 21
113.00000
  0
LINE
  8
Gravur
 62
   7
 39
0.600
  6
CONTINUOUS
 10
12.41078
 20
113.00000
 30
 0
 11
13.60522
 21
117.30000
  0
LINE
  8
Gravur
 62
   7
 39
0.600
  6
CONTINUOUS
 10
13.60522
 20
117.30000
 30
 0
 11
14.79967
 21
113.00000
  0
LINE
  8
Gravur
 62
   7
 39
0.600
  6
CONTINUOUS
 10
14.79967
 20
113.00000
 30
 0
 11
15.99411
 21
117.30000
  0
LINE
  8
Gravur
 62
   7
 39
0.600
  6
CONTINUOUS
 10
17.14133
 20
117.30000
 30
 0
 11
17.14133
 21
117.06111
  0
LINE
  8
Gravur
 62
   7
 39
0.600
  6
CONTINUOUS
 10
17.14133
 20
115.86667
 30
 0
 11
17.14133
 21
113.00000
  0
LINE
  8
Gravur
 62
   7
 39
0.600
  6
CONTINUOUS
 10
18.28833
 20
117.30000
 30
 0
 11
18.28833
 21
113.57333
  0
ARC
  8
Gravur
 62
   7
 39
0.600
  6
CONTINUOUS
 10
18.87103
 20
113.57317
 30
 0
 40
0.58270
 50
179.98432
 51
259.62682
  0
ARC
  8
Gravur
 62
   7
 39
0.600
  6
CONTINUOUS
 10
20.99845
 20
114.58956
 30
 0
 40
1.62331
 50
228.05192
 51
293.02344
  0
ARC
  8
Gravur
 62
   7
 39
0.600
  6
CONTINUOUS
 10
21.39437
 20
113.65993
 30
 0
 40
0.61288
 50
292.94873
 51
431.82316
  0
LINE
  8
Gravur
 62
   7
 39
0.600
  6
CONTINUOUS
 10
21.58556
 20
114.24222
 30
 0
 11
20.29556
 21
114.67222
  0
ARC
  8
Gravur
 62
   7
 39
0.600
  6
CONTINUOUS
 10
20.46765
 20
115.19483
 30
 0
 40
0.55021
 50
119.10762
 51
251.77304
  0
ARC
  8
Gravur
 62
   7
 39
0.600
  6
CONTINUOUS
 10
21.03274
 20
114.20207
 30
 0
 40
1.69252
 50
54.50145
 51
119.47297
  0
LINE
  8
Gravur
 62
   7
 39
0.600
  6
CONTINUOUS
 10
23.16133
 20
114.19444
 30
 0
 11
23.16133
 21
114.67222
  0
ARC
  8
Gravur
 62
   7
 39
0.600
  6
CONTINUOUS
 10
24.35578
 20
114.67222
 30
 0
 40
1.19444
 50
0.00000
 51
180.00000
  0
LINE
  8
Gravur
 62
   7
 39
0.600
  6
CONTINUOUS
 10
25.55022
 20
114.67222
 30
 0
 11
25.55022
 21
114.19444
  0
ARC
  8
Gravur
 62
   7
 39
0.600
  6
CONTINUOUS
 10
24.35578
 20
114.19444
 30
 0
 40
1.19444
 50
-180.00000
 51
0.00000
  0
LINE
  8
Gravur
 62
   7
 39
0.600
  6
CONTINUOUS
 10
26.69633
 20
113.00000
 30
 0
 11
26.69633
 21
115.86667
  0
LINE
  8
Gravur
 62
   7
 39
0.600
  6
CONTINUOUS
 10
26.69633
 20
115.86667
 30
 0
 11
26.69633
 21
114.67222
  0
ARC
  8
Gravur
 62
   7
 39
0.600
  6
CONTINUOUS
 10
27.89078
 20
114.67222
 30
 0
 40
1.19444
 50
0.00000
 51
180.00000
  0
LINE
  8
Gravur
 62
   7
 39
0.600
  6
CONTINUOUS
 10
29.08522
 20
114.67222
 30
 0
 11
29.08522
 21
113.00000
  0
LINE
  8
Gravur
 62
   7
 39
0.400
  6
CONTINUOUS
 10
17.70173
 20
15.65094
 30
 0
 11
17.70173
 21
15.93572
  0
ARC
  8
Gravur
 62
   7
 39
0.400
  6
CONTINUOUS
 10
18.41368
 20
15.93572
 30
 0
 40
0.71194
 50
0.00000
 51
180.00000
  0
LINE
  8
Gravur
 62
   7
 39
0.400
  6
CONTINUOUS
 10
19.12562
 20
15.93572
 30
 0
 11
19.12562
 21
15.65094
  0
ARC
  8
Gravur
 62
   7
 39
0.400
  6
CONTINUOUS
 10
18.41368
 20
15.65094
 30
 0
 40
0.71194
 50
-180.00000
 51
0.00000
  0
LINE
  8
Gravur
 62
   7
 39
0.400
  6
CONTINUOUS
 10
19.80973
 20
16.64767
 30
 0
 11
19.80973
 21
15.65094
  0
ARC
  8
Gravur
 62
   7
 39
0.400
  6
CONTINUOUS
 10
20.52168
 20
15.65094
 30
 0
 40
0.71194
 50
180.00000
 51
360.00000
  0
LINE
  8
Gravur
 62
   7
 39
0.400
  6
CONTINUOUS
 10
21.23362
 20
15.65094
 30
 0
 11
21.23362
 21
14.93900
  0
LINE
  8
Gravur
 62
   7
 39
0.400
  6
CONTINUOUS
 10
21.23362
 20
14.93900
 30
 0
 11
21.23362
 21
16.64767
  0
LINE
  8
Gravur
 62
   7
 39
0.400
  6
CONTINUOUS
 10
22.17303
 20
17.50200
 30
 0
 11
22.17303
 21
16.64767
  0
LINE
  8
Gravur
 62
   7
 39
0.400
  6
CONTINUOUS
 10
22.17303
 20
16.64767
 30
 0
 11
22.60020
 21
16.64767
  0
LINE
  8
Gravur
 62
   7
 39
0.400
  6
CONTINUOUS
 10
22.60020
 20
16.64767
 30
 0
 11
21.88826
 21
16.64767
  0
LINE
  8
Gravur
 62
   7
 39
0.400
  6
CONTINUOUS
 10
21.88826
 20
16.64767
 30
 0
 11
22.17303
 21
16.64767
  0
LINE
  8
Gravur
 62
   7
 39
0.400
  6
CONTINUOUS
 10
22.17303
 20
16.64767
 30
 0
 11
22.17303
 21
15.28073
  0
ARC
  8
Gravur
 62
   7
 39
0.400
  6
CONTINUOUS
 10
22.52035
 20
15.28064
 30
 0
 40
0.34731
 50
179.98432
 51
259.62682
  0
LINE
  8
Gravur
 62
   7
 39
0.400
  6
CONTINUOUS
 10
19.09673
 20
57.64200
 30
 0
 11
19.09673
 21
57.49961
  0
LINE
  8
Gravur
 62
   7
 39
0.400
  6
CONTINUOUS
 10
19.09673
 20
56.78767
 30
 0
 11
19.09673
 21
55.07900
  0
LINE
  8
Gravur
 62
   7
 39
0.400
  6
CONTINUOUS
 10
19.78073
 20
55.07900
 30
 0
 11
19.78073
 21
56.78767
  0
LINE
  8
Gravur
 62
   7
 39
0.400
  6
CONTINUOUS
 10
19.78073
 20
56.78767
 30
 0
 11
19.78073
 21
56.07572
  0
ARC
  8
Gravur
 62
   7
 39
0.400
  6
CONTINUOUS
 10
20.49268
 20
56.07572
 30
 0
 40
0.71194
 50
0.00000
 51
180.00000
  0
LINE
  8
Gravur
 62
   7
 39
0.400
  6
CONTINUOUS
 10
21.20462
 20
56.07572
 30
 0
 11
21.20462
 21
55.07900
  0
LINE
  8
Gravur
 62
   7
 39
0.400
  6
CONTINUOUS
 10
5.06303
 20
98.28200
 30
 0
 11
5.06303
 21
97.42767
  0
LINE
  8
Gravur
 62
   7
 39
0.400
  6
CONTINUOUS
 10
5.06303
 20
97.42767
 30
 0
 11
5.49020
 21
97.42767
  0
LINE
  8
Gravur
 62
   7
 39
0.400
  6
CONTINUOUS
 10
5.49020
 20
97.42767
 30
 0
 11
4.77826
 21
97.42767
  0
LINE
  8
Gravur
 62
   7
 39
0.400
  6
CONTINUOUS
 10
4.77826
 20
97.42767
 30
 0
 11
5.06303
 21
97.42767
  0
LINE
  8
Gravur
 62
   7
 39
0.400
  6
CONTINUOUS
 10
5.06303
 20
97.42767
 30
 0
 11
5.06303
 21
96.06073
  0
ARC
  8
Gravur
 62
   7
 39
0.400
  6
CONTINUOUS
 10
5.41035
 20
96.06064
 30
 0
 40
0.34731
 50
179.98432
 51
259.62682
  0
LINE
  8
Gravur
 62
   7
 39
0.400
  6
CONTINUOUS
 10
6.17373
 20
95.71900
 30
 0
 11
6.17373
 21
97.42767
  0
LINE
  8
Gravur
 62
   7
 39
0.400
  6
CONTINUOUS
 10
6.17373
 20
97.42767
 30
 0
 11
6.17373
 21
96.85811
  0
ARC
  8
Gravur
 62
   7
 39
0.400
  6
CONTINUOUS
 10
6.80304
 20
96.85813
 30
 0
 40
0.62931
 50
140.69073
 51
180.00162
  0
ARC
  8
Gravur
 62
   7
 39
0.400
  6
CONTINUOUS
 10
6.62938
 20
96.99927
 30
 0
 40
0.40553
 50
39.42406
 51
140.57594
  0
LINE
  8
Gravur
 62
   7
 39
0.400
  6
CONTINUOUS
 10
7.59773
 20
98.28200
 30
 0
 11
7.59773
 21
98.13961
  0
LINE
  8
Gravur
 62
   7
 39
0.400
  6
CONTINUOUS
 10
7.59773
 20
97.42767
 30
 0
 11
7.59773
 21
95.71900
  0
LINE
  8
Gravur
 62
   7
 39
0.400
  6
CONTINUOUS
 10
9.70562
 20
97.42767
 30
 0
 11
9.70562
 21
96.43094
  0
ARC
  8
Gravur
 62
   7
 39
0.400
  6
CONTINUOUS
 10
8.99368
 20
96.40247
 30
 0
 40
0.71251
 50
-177.70939
 51
2.29061
  0
LINE
  8
Gravur
 62
   7
 39
0.400
  6
CONTINUOUS
 10
8.28173
 20
96.37399
 30
 0
 11
8.28173
 21
96.71572
  0
ARC
  8
Gravur
 62
   7
 39
0.400
  6
CONTINUOUS
 10
8.99368
 20
96.71572
 30
 0
 40
0.71194
 50
0.00000
 51
180.00000
  0
LINE
  8
Gravur
 62
   7
 39
0.400
  6
CONTINUOUS
 10
9.70562
 20
96.71572
 30
 0
 11
9.70562
 21
95.57661
  0
ARC
  8
Gravur
 62
   7
 39
0.400
  6
CONTINUOUS
 10
8.98765
 20
95.57282
 30
 0
 40
0.71798
 50
-134.87369
 51
0.30252
  0
LINE
  8
Gravur
 62
   7
 39
0.400
  6
CONTINUOUS
 10
11.81362
 20
97.42867
 30
 0
 11
11.81362
 21
96.43194
  0
ARC
  8
Gravur
 62
   7
 39
0.400
  6
CONTINUOUS
 10
11.10168
 20
96.40347
 30
 0
 40
0.71251
 50
-177.70939
 51
2.29061
  0
LINE
  8
Gravur
 62
   7
 39
0.400
  6
CONTINUOUS
 10
10.38973
 20
96.37499
 30
 0
 11
10.38973
 21
96.71672
  0
ARC
  8
Gravur
 62
   7
 39
0.400
  6
CONTINUOUS
 10
11.10168
 20
96.71672
 30
 0
 40
0.71194
 50
0.00000
 51
180.00000
  0
LINE
  8
Gravur
 62
   7
 39
0.400
  6
CONTINUOUS
 10
11.81362
 20
96.71672
 30
 0
 11
11.81362
 21
95.57761
  0
ARC
  8
Gravur
 62
   7
 39
0.400
  6
CONTINUOUS
 10
11.09565
 20
95.57382
 30
 0
 40
0.71798
 50
-134.87369
 51
0.30252
  0
LINE
  8
Gravur
 62
   7
 39
0.400
  6
CONTINUOUS
 10
12.49673
 20
96.57533
 30
 0
 11
13.92062
 21
96.57533
  0
LINE
  8
Gravur
 62
   7
 39
0.400
  6
CONTINUOUS
 10
13.92062
 20
96.57533
 30
 0
 11
13.92062
 21
96.71772
  0
ARC
  8
Gravur
 62
   7
 39
0.400
  6
CONTINUOUS
 10
13.20868
 20
96.71772
 30
 0
 40
0.71194
 50
0.00000
 51
180.00000
  0
LINE
  8
Gravur
 62
   7
 39
0.400
  6
CONTINUOUS
 10
12.49673
 20
96.71772
 30
 0
 11
12.49673
 21
96.43294
  0
ARC
  8
Gravur
 62
   7
 39
0.400
  6
CONTINUOUS
 10
13.24331
 20
96.43235
 30
 0
 40
0.74658
 50
179.95424
 51
322.44599
  0
LINE
  8
Gravur
 62
   7
 39
0.400
  6
CONTINUOUS
 10
14.60373
 20
95.72200
 30
 0
 11
14.60373
 21
97.43067
  0
LINE
  8
Gravur
 62
   7
 39
0.400
  6
CONTINUOUS
 10
14.60373
 20
97.43067
 30
 0
 11
14.60373
 21
96.86111
  0
ARC
  8
Gravur
 62
   7
 39
0.400
  6
CONTINUOUS
 10
15.23304
 20
96.86113
 30
 0
 40
0.62931
 50
140.69073
 51
180.00162
  0
ARC
  8
Gravur
 62
   7
 39
0.400
  6
CONTINUOUS
 10
15.05938
 20
97.00227
 30
 0
 40
0.40553
 50
39.42406
 51
140.57594
  0
LINE
  8
Gravur
 62
   7
 39
0.400
  6
CONTINUOUS
 10
26.10073
 20
95.71900
 30
 0
 11
26.10073
 21
97.42767
  0
LINE
  8
Gravur
 62
   7
 39
0.400
  6
CONTINUOUS
 10
26.10073
 20
97.42767
 30
 0
 11
26.10073
 21
96.71572
  0
ARC
  8
Gravur
 62
   7
 39
0.400
  6
CONTINUOUS
 10
26.81268
 20
96.71572
 30
 0
 40
0.71194
 50
0.00000
 51
180.00000
  0
LINE
  8
Gravur
 62
   7
 39
0.400
  6
CONTINUOUS
 10
27.52462
 20
96.71572
 30
 0
 11
27.52462
 21
95.71900
  0
LINE
  8
Gravur
 62
   7
 39
0.400
  6
CONTINUOUS
 10
28.20873
 20
96.43094
 30
 0
 11
28.20873
 21
96.71572
  0
ARC
  8
Gravur
 62
   7
 39
0.400
  6
CONTINUOUS
 10
28.92068
 20
96.71572
 30
 0
 40
0.71194
 50
0.00000
 51
180.00000
  0
LINE
  8
Gravur
 62
   7
 39
0.400
  6
CONTINUOUS
 10
29.63262
 20
96.71572
 30
 0
 11
29.63262
 21
96.43094
  0
ARC
  8
Gravur
 62
   7
 39
0.400
  6
CONTINUOUS
 10
28.92068
 20
96.43094
 30
 0
 40
0.71194
 50
-180.00000
 51
0.00000
  0
LINE
  8
Gravur
 62
   7
 39
0.400
  6
CONTINUOUS
 10
30.31673
 20
98.28200
 30
 0
 11
30.31673
 21
98.13961
  0
LINE
  8
Gravur
 62
   7
 39
0.400
  6
CONTINUOUS
 10
30.31673
 20
97.42767
 30
 0
 11
30.31673
 21
95.71900
  0
ARC
  8
Gravur
 62
   7
 39
0.400
  6
CONTINUOUS
 10
31.64651
 20
96.66645
 30
 0
 40
0.96757
 50
228.05192
 51
293.02344
  0
ARC
  8
Gravur
 62
   7
 39
0.400
  6
CONTINUOUS
 10
31.88250
 20
96.11235
 30
 0
 40
0.36530
 50
292.94873
 51
431.82316
  0
LINE
  8
Gravur
 62
   7
 39
0.400
  6
CONTINUOUS
 10
31.99646
 20
96.45942
 30
 0
 11
31.22756
 21
96.71572
  0
ARC
  8
Gravur
 62
   7
 39
0.400
  6
CONTINUOUS
 10
31.33013
 20
97.02722
 30
 0
 40
0.32795
 50
119.10762
 51
251.77304
  0
ARC
  8
Gravur
 62
   7
 39
0.400
  6
CONTINUOUS
 10
31.66695
 20
96.43549
 30
 0
 40
1.00882
 50
54.50145
 51
119.47297
  0
LINE
  8
Gravur
 62
   7
 39
0.400
  6
CONTINUOUS
 10
32.93573
 20
96.57433
 30
 0
 11
34.35962
 21
96.57433
  0
LINE
  8
Gravur
 62
   7
 39
0.400
  6
CONTINUOUS
 10
34.35962
 20
96.57433
 30
 0
 11
34.35962
 21
96.71672
  0
ARC
  8
Gravur
 62
   7
 39
0.400
  6
CONTINUOUS
 10
33.64768
 20
96.71672
 30
 0
 40
0.71194
 50
0.00000
 51
180.00000
  0
LINE
  8
Gravur
 62
   7
 39
0.400
  6
CONTINUOUS
 10
32.93573
 20
96.71672
 30
 0
 11
32.93573
 21
96.43194
  0
ARC
  8
Gravur
 62
   7
 39
0.400
  6
CONTINUOUS
 10
33.68231
 20
96.43135
 30
 0
 40
0.74658
 50
179.95424
 51
322.44599
  0
LINE
  8
Gravur
 62
   7
 39
0.400
  6
CONTINUOUS
 10
25.44173
 20
34.75900
 30
 0
 11
25.44173
 21
36.46767
  0
LINE
  8
Gravur
 62
   7
 39
0.400
  6
CONTINUOUS
 10
25.44173
 20
36.46767
 30
 0
 11
25.44173
 21
35.89811
  0
ARC
  8
Gravur
 62
   7
 39
0.400
  6
CONTINUOUS
 10
26.07104
 20
35.89813
 30
 0
 40
0.62931
 50
140.69073
 51
180.00162
  0
ARC
  8
Gravur
 62
   7
 39
0.400
  6
CONTINUOUS
 10
25.89738
 20
36.03927
 30
 0
 40
0.40553
 50
39.42406
 51
140.57594
  0
LINE
  8
Gravur
 62
   7
 39
0.400
  6
CONTINUOUS
 10
28.34658
 20
36.46767
 30
 0
 11
28.34658
 21
35.47094
  0
ARC
  8
Gravur
 62
   7
 39
0.400
  6
CONTINUOUS
 10
27.60616
 20
35.47094
 30
 0
 40
0.74042
 50
-180.00000
 51
0.00000
  0
LINE
  8
Gravur
 62
   7
 39
0.400
  6
CONTINUOUS
 10
26.86573
 20
35.47094
 30
 0
 11
26.86573
 21
35.75572
  0
ARC
  8
Gravur
 62
   7
 39
0.400
  6
CONTINUOUS
 10
27.60616
 20
35.75572
 30
 0
 40
0.74042
 50
0.00000
 51
180.00000
  0
LINE
  8
Gravur
 62
   7
 39
0.400
  6
CONTINUOUS
 10
28.34658
 20
35.75572
 30
 0
 11
28.34658
 21
35.07226
  0
ARC
  8
Gravur
 62
   7
 39
0.400
  6
CONTINUOUS
 10
28.75946
 20
35.11055
 30
 0
 40
0.41466
 50
185.29897
 51
260.11981
  0
LINE
  8
Gravur
 62
   7
 39
0.400
  6
CONTINUOUS
 10
29.37273
 20
34.76000
 30
 0
 11
29.37273
 21
36.46867
  0
LINE
  8
Gravur
 62
   7
 39
0.400
  6
CONTINUOUS
 10
29.37273
 20
36.46867
 30
 0
 11
29.37273
 21
35.75672
  0
ARC
  8
Gravur
 62
   7
 39
0.400
  6
CONTINUOUS
 10
30.08468
 20
35.75672
 30
 0
 40
0.71194
 50
0.00000
 51
180.00000
  0
LINE
  8
Gravur
 62
   7
 39
0.400
  6
CONTINUOUS
 10
30.79662
 20
35.75672
 30
 0
 11
30.79662
 21
34.76000
  0
LINE
  8
Gravur
 62
   7
 39
0.400
  6
CONTINUOUS
 10
32.90362
 20
36.46867
 30
 0
 11
32.90362
 21
35.47194
  0
ARC
  8
Gravur
 62
   7
 39
0.400
  6
CONTINUOUS
 10
32.19168
 20
35.44347
 30
 0
 40
0.71251
 50
-177.70939
 51
2.29061
  0
LINE
  8
Gravur
 62
   7
 39
0.400
  6
CONTINUOUS
 10
31.47973
 20
35.41499
 30
 0
 11
31.47973
 21
35.75672
  0
ARC
  8
Gravur
 62
   7
 39
0.400
  6
CONTINUOUS
 10
32.19168
 20
35.75672
 30
 0
 40
0.71194
 50
0.00000
 51
180.00000
  0
LINE
  8
Gravur
 62
   7
 39
0.400
  6
CONTINUOUS
 10
32.90362
 20
35.75672
 30
 0
 11
32.90362
 21
34.61761
  0
ARC
  8
Gravur
 62
   7
 39
0.400
  6
CONTINUOUS
 10
32.18565
 20
34.61382
 30
 0
 40
0.71798
 50
-134.87369
 51
0.30252
  0
LINE
  8
Gravur
 62
   7
 39
0.400
  6
CONTINUOUS
 10
33.58673
 20
35.61533
 30
 0
 11
35.01062
 21
35.61533
  0
LINE
  8
Gravur
 62
   7
 39
0.400
  6
CONTINUOUS
 10
35.01062
 20
35.61533
 30
 0
 11
35.01062
 21
35.75772
  0
ARC
  8
Gravur
 62
   7
 39
0.400
  6
CONTINUOUS
 10
34.29868
 20
35.75772
 30
 0
 40
0.71194
 50
0.00000
 51
180.00000
  0
LINE
  8
Gravur
 62
   7
 39
0.400
  6
CONTINUOUS
 10
33.58673
 20
35.75772
 30
 0
 11
33.58673
 21
35.47294
  0
ARC
  8
Gravur
 62
   7
 39
0.400
  6
CONTINUOUS
 10
34.33331
 20
35.47235
 30
 0
 40
0.74658
 50
179.95424
 51
322.44599
  0
ARC
  8
Gravur
 62
   7
 39
0.400
  6
CONTINUOUS
 10
7.33351
 20
35.70645
 30
 0
 40
0.96757
 50
228.05192
 51
293.02344
  0
ARC
  8
Gravur
 62
   7
 39
0.400
  6
CONTINUOUS
 10
7.56950
 20
35.15235
 30
 0
 40
0.36530
 50
292.94873
 51
431.82316
  0
LINE
  8
Gravur
 62
   7
 39
0.400
  6
CONTINUOUS
 10
7.68346
 20
35.49942
 30
 0
 11
6.91456
 21
35.75572
  0
ARC
  8
Gravur
 62
   7
 39
0.400
  6
CONTINUOUS
 10
7.01713
 20
36.06722
 30
 0
 40
0.32795
 50
119.10762
 51
251.77304
  0
ARC
  8
Gravur
 62
   7
 39
0.400
  6
CONTINUOUS
 10
7.35395
 20
35.47549
 30
 0
 40
1.00882
 50
54.50145
 51
119.47297
  0
LINE
  8
Gravur
 62
   7
 39
0.400
  6
CONTINUOUS
 10
8.62373
 20
37.32300
 30
 0
 11
8.62373
 21
34.76000
  0
LINE
  8
Gravur
 62
   7
 39
0.400
  6
CONTINUOUS
 10
8.62373
 20
34.76000
 30
 0
 11
8.62373
 21
35.75672
  0
ARC
  8
Gravur
 62
   7
 39
0.400
  6
CONTINUOUS
 10
9.33568
 20
35.75672
 30
 0
 40
0.71194
 50
0.00000
 51
180.00000
  0
LINE
  8
Gravur
 62
   7
 39
0.400
  6
CONTINUOUS
 10
10.04762
 20
35.75672
 30
 0
 11
10.04762
 21
34.76000
  0
LINE
  8
Gravur
 62
   7
 39
0.400
  6
CONTINUOUS
 10
10.73073
 20
37.32300
 30
 0
 11
10.73073
 21
37.18061
  0
LINE
  8
Gravur
 62
   7
 39
0.400
  6
CONTINUOUS
 10
10.73073
 20
36.46867
 30
 0
 11
10.73073
 21
34.76000
  0
LINE
  8
Gravur
 62
   7
 39
0.400
  6
CONTINUOUS
 10
11.38526
 20
36.46867
 30
 0
 11
12.09720
 21
36.46867
  0
ARC
  8
Gravur
 62
   7
 39
0.400
  6
CONTINUOUS
 10
12.09495
 20
36.89809
 30
 0
 40
0.42492
 50
89.69622
 51
180.30378
  0
LINE
  8
Gravur
 62
   7
 39
0.400
  6
CONTINUOUS
 10
11.67003
 20
36.89583
 30
 0
 11
11.67003
 21
34.76000
  0
LINE
  8
Gravur
 62
   7
 39
0.400
  6
CONTINUOUS
 10
13.03603
 20
37.32300
 30
 0
 11
13.03603
 21
36.46867
  0
LINE
  8
Gravur
 62
   7
 39
0.400
  6
CONTINUOUS
 10
13.03603
 20
36.46867
 30
 0
 11
13.46320
 21
36.46867
  0
LINE
  8
Gravur
 62
   7
 39
0.400
  6
CONTINUOUS
 10
13.46320
 20
36.46867
 30
 0
 11
12.75126
 21
36.46867
  0
LINE
  8
Gravur
 62
   7
 39
0.400
  6
CONTINUOUS
 10
12.75126
 20
36.46867
 30
 0
 11
13.03603
 21
36.46867
  0
LINE
  8
Gravur
 62
   7
 39
0.400
  6
CONTINUOUS
 10
13.03603
 20
36.46867
 30
 0
 11
13.03603
 21
35.10173
  0
ARC
  8
Gravur
 62
   7
 39
0.400
  6
CONTINUOUS
 10
13.38335
 20
35.10164
 30
 0
 40
0.34731
 50
179.98432
 51
259.62682
  0
ARC
  8
Gravur
 62
   7
 39
0.400
  6
CONTINUOUS
 10
12.00377
 20
75.90061
 30
 0
 40
0.70606
 50
42.74595
 51
180.39666
  0
LINE
  8
Gravur
 62
   7
 39
0.400
  6
CONTINUOUS
 10
11.29773
 20
75.89572
 30
 0
 11
11.29773
 21
75.61094
  0
ARC
  8
Gravur
 62
   7
 39
0.400
  6
CONTINUOUS
 10
12.00520
 20
75.61153
 30
 0
 40
0.70747
 50
180.04758
 51
328.39092
  0
LINE
  8
Gravur
 62
   7
 39
0.400
  6
CONTINUOUS
 10
13.29173
 20
77.46200
 30
 0
 11
13.29173
 21
75.24073
  0
ARC
  8
Gravur
 62
   7
 39
0.400
  6
CONTINUOUS
 10
13.63905
 20
75.24064
 30
 0
 40
0.34731
 50
179.98432
 51
259.62682
  0
LINE
  8
Gravur
 62
   7
 39
0.400
  6
CONTINUOUS
 10
14.26073
 20
75.61094
 30
 0
 11
14.26073
 21
75.89572
  0
ARC
  8
Gravur
 62
   7
 39
0.400
  6
CONTINUOUS
 10
14.97268
 20
75.89572
 30
 0
 40
0.71194
 50
0.00000
 51
180.00000
  0
LINE
  8
Gravur
 62
   7
 39
0.400
  6
CONTINUOUS
 10
15.68462
 20
75.89572
 30
 0
 11
15.68462
 21
75.61094
  0
ARC
  8
Gravur
 62
   7
 39
0.400
  6
CONTINUOUS
 10
14.97268
 20
75.61094
 30
 0
 40
0.71194
 50
-180.00000
 51
0.00000
  0
ARC
  8
Gravur
 62
   7
 39
0.400
  6
CONTINUOUS
 10
17.07477
 20
75.90061
 30
 0
 40
0.70606
 50
42.74595
 51
180.39666
  0
LINE
  8
Gravur
 62
   7
 39
0.400
  6
CONTINUOUS
 10
16.36873
 20
75.89572
 30
 0
 11
16.36873
 21
75.61094
  0
ARC
  8
Gravur
 62
   7
 39
0.400
  6
CONTINUOUS
 10
17.07620
 20
75.61153
 30
 0
 40
0.70747
 50
180.04758
 51
328.39092
  0
LINE
  8
Gravur
 62
   7
 39
0.400
  6
CONTINUOUS
 10
18.36273
 20
77.46200
 30
 0
 11
18.36273
 21
74.89900
  0
LINE
  8
Gravur
 62
   7
 39
0.400
  6
CONTINUOUS
 10
18.36273
 20
74.89900
 30
 0
 11
18.36273
 21
75.46856
  0
LINE
  8
Gravur
 62
   7
 39
0.400
  6
CONTINUOUS
 10
18.36273
 20
75.46856
 30
 0
 11
19.78662
 21
76.60767
  0
LINE
  8
Gravur
 62
   7
 39
0.400
  6
CONTINUOUS
 10
19.78662
 20
76.60767
 30
 0
 11
18.93229
 21
75.92420
  0
LINE
  8
Gravur
 62
   7
 39
0.400
  6
CONTINUOUS
 10
18.93229
 20
75.92420
 30
 0
 11
19.78662
 21
74.89900
  0
LINE
  8
Gravur
 62
   7
 39
0.400
  6
CONTINUOUS
 10
22.29273
 20
74.89900
 30
 0
 11
22.29273
 21
76.60767
  0
LINE
  8
Gravur
 62
   7
 39
0.400
  6
CONTINUOUS
 10
22.29273
 20
76.60767
 30
 0
 11
22.29273
 21
76.03811
  0
ARC
  8
Gravur
 62
   7
 39
0.400
  6
CONTINUOUS
 10
22.92204
 20
76.03813
 30
 0
 40
0.62931
 50
140.69073
 51
180.00162
  0
ARC
  8
Gravur
 62
   7
 39
0.400
  6
CONTINUOUS
 10
22.74838
 20
76.17927
 30
 0
 40
0.40553
 50
39.42406
 51
140.57594
  0
LINE
  8
Gravur
 62
   7
 39
0.400
  6
CONTINUOUS
 10
25.19658
 20
76.60767
 30
 0
 11
25.19658
 21
75.61094
  0
ARC
  8
Gravur
 62
   7
 39
0.400
  6
CONTINUOUS
 10
24.45616
 20
75.61094
 30
 0
 40
0.74042
 50
-180.00000
 51
0.00000
  0
LINE
  8
Gravur
 62
   7
 39
0.400
  6
CONTINUOUS
 10
23.71573
 20
75.61094
 30
 0
 11
23.71573
 21
75.89572
  0
ARC
  8
Gravur
 62
   7
 39
0.400
  6
CONTINUOUS
 10
24.45616
 20
75.89572
 30
 0
 40
0.74042
 50
0.00000
 51
180.00000
  0
LINE
  8
Gravur
 62
   7
 39
0.400
  6
CONTINUOUS
 10
25.19658
 20
75.89572
 30
 0
 11
25.19658
 21
75.21226
  0
ARC
  8
Gravur
 62
   7
 39
0.400
  6
CONTINUOUS
 10
25.60946
 20
75.25055
 30
 0
 40
0.41466
 50
185.29897
 51
260.11981
  0
LINE
  8
Gravur
 62
   7
 39
0.400
  6
CONTINUOUS
 10
26.47803
 20
77.46300
 30
 0
 11
26.47803
 21
76.60867
  0
LINE
  8
Gravur
 62
   7
 39
0.400
  6
CONTINUOUS
 10
26.47803
 20
76.60867
 30
 0
 11
26.90520
 21
76.60867
  0
LINE
  8
Gravur
 62
   7
 39
0.400
  6
CONTINUOUS
 10
26.90520
 20
76.60867
 30
 0
 11
26.19326
 21
76.60867
  0
LINE
  8
Gravur
 62
   7
 39
0.400
  6
CONTINUOUS
 10
26.19326
 20
76.60867
 30
 0
 11
26.47803
 21
76.60867
  0
LINE
  8
Gravur
 62
   7
 39
0.400
  6
CONTINUOUS
 10
26.47803
 20
76.60867
 30
 0
 11
26.47803
 21
75.24173
  0
ARC
  8
Gravur
 62
   7
 39
0.400
  6
CONTINUOUS
 10
26.82535
 20
75.24164
 30
 0
 40
0.34731
 50
179.98432
 51
259.62682
  0
LINE
  8
Gravur
 62
   7
 39
0.400
  6
CONTINUOUS
 10
27.58773
 20
75.75433
 30
 0
 11
29.01162
 21
75.75433
  0
LINE
  8
Gravur
 62
   7
 39
0.400
  6
CONTINUOUS
 10
29.01162
 20
75.75433
 30
 0
 11
29.01162
 21
75.89672
  0
ARC
  8
Gravur
 62
   7
 39
0.400
  6
CONTINUOUS
 10
28.29968
 20
75.89672
 30
 0
 40
0.71194
 50
0.00000
 51
180.00000
  0
LINE
  8
Gravur
 62
   7
 39
0.400
  6
CONTINUOUS
 10
27.58773
 20
75.89672
 30
 0
 11
27.58773
 21
75.61194
  0
ARC
  8
Gravur
 62
   7
 39
0.400
  6
CONTINUOUS
 10
28.33431
 20
75.61135
 30
 0
 40
0.74658
 50
179.95424
 51
322.44599
  0
CIRCLE
  8
Kontur
 62
   7
 39
0.100
  6
CONTINUOUS
 10
32.80000
 20
125.40000
 30
 0
 40
1.60000
  0
CIRCLE
  8
Kontur
 62
   7
 39
0.100
  6
CONTINUOUS
 10
7.50000
 20
125.40000
 30
 0
 40
1.60000
  0
CIRCLE
  8
Kontur
 62
   7
 39
0.100
  6
CONTINUOUS
 10
7.50000
 20
3.00000
 30
 0
 40
1.60000
  0
CIRCLE
  8
Kontur
 62
   7
 39
0.100
  6
CONTINUOUS
 10
32.80000
 20
3.00000
 30
 0
 40
1.60000
  0
CIRCLE
  8
Kontur
 62
   7
 39
0.100
  6
CONTINUOUS
 10
20.15000
 20
24.22000
 30
 0
 40
3.50000
  0
CIRCLE
  8
Kontur
 62
   7
 39
0.100
  6
CONTINUOUS
 10
20.15000
 20
64.36000
 30
 0
 40
3.50000
  0
CIRCLE
  8
Kontur
 62
   7
 39
0.100
  6
CONTINUOUS
 10
10.07400
 20
105.00000
 30
 0
 40
3.50000
  0
CIRCLE
  8
Kontur
 62
   7
 39
0.100
  6
CONTINUOUS
 10
30.22900
 20
105.00000
 30
 0
 40
3.50000
  0
CIRCLE
  8
Kontur
 62
   7
 39
0.100
  6
CONTINUOUS
 10
30.22500
 20
44.04000
 30
 0
 40
4.00000
  0
CIRCLE
  8
Kontur
 62
   7
 39
0.100
  6
CONTINUOUS
 10
10.07500
 20
44.04000
 30
 0
 40
4.00000
  0
CIRCLE
  8
Kontur
 62
   7
 39
0.100
  6
CONTINUOUS
 10
20.15000
 20
84.18000
 30
 0
 40
4.00000
  0
CIRCLE
  8
Kontur
 62
   7
 39
0.100
  6
CONTINUOUS
 10
10.07000
 20
84.18000
 30
 0
 40
1.50000
  0
LINE
  8
Bezugspunkte
 62
   1
 39
0.100
  6
CONTINUOUS
 10
-0.76600
 20
0.00000
 30
 0
 11
0.76600
 21
0.00000
  0
LINE
  8
Bezugspunkte
 62
   1
 39
0.100
  6
CONTINUOUS
 10
0.00000
 20
-0.76600
 30
 0
 11
0.00000
 21
0.76600
  0
LINE
  8
Bezugspunkte
 62
   1
 39
0.100
  6
CONTINUOUS
 10
19.38400
 20
118.49500
 30
 0
 11
20.91600
 21
118.49500
  0
LINE
  8
Bezugspunkte
 62
   1
 39
0.100
  6
CONTINUOUS
 10
20.15000
 20
117.72900
 30
 0
 11
20.15000
 21
119.26100
  0
LINE
  8
Bezugspunkte
 62
   1
 39
0.100
  6
CONTINUOUS
 10
19.38400
 20
112.70000
 30
 0
 11
20.91600
 21
112.70000
  0
LINE
  8
Bezugspunkte
 62
   1
 39
0.100
  6
CONTINUOUS
 10
20.15000
 20
111.93400
 30
 0
 11
20.15000
 21
113.46600
  0
LINE
  8
Bezugspunkte
 62
   1
 39
0.100
  6
CONTINUOUS
 10
19.38400
 20
125.39500
 30
 0
 11
20.91600
 21
125.39500
  0
LINE
  8
Bezugspunkte
 62
   1
 39
0.100
  6
CONTINUOUS
 10
20.15000
 20
124.62900
 30
 0
 11
20.15000
 21
126.16100
  0
LINE
  8
Bezugspunkte
 62
   1
 39
0.100
  6
CONTINUOUS
 10
32.03400
 20
125.40000
 30
 0
 11
33.56600
 21
125.40000
  0
LINE
  8
Bezugspunkte
 62
   1
 39
0.100
  6
CONTINUOUS
 10
32.80000
 20
124.63400
 30
 0
 11
32.80000
 21
126.16600
  0
LINE
  8
Bezugspunkte
 62
   1
 39
0.100
  6
CONTINUOUS
 10
6.73400
 20
125.40000
 30
 0
 11
8.26600
 21
125.40000
  0
LINE
  8
Bezugspunkte
 62
   1
 39
0.100
  6
CONTINUOUS
 10
7.50000
 20
124.63400
 30
 0
 11
7.50000
 21
126.16600
  0
LINE
  8
Bezugspunkte
 62
   1
 39
0.100
  6
CONTINUOUS
 10
19.38400
 20
3.00000
 30
 0
 11
20.91600
 21
3.00000
  0
LINE
  8
Bezugspunkte
 62
   1
 39
0.100
  6
CONTINUOUS
 10
20.15000
 20
2.23400
 30
 0
 11
20.15000
 21
3.76600
  0
LINE
  8
Bezugspunkte
 62
   1
 39
0.100
  6
CONTINUOUS
 10
6.73400
 20
3.00000
 30
 0
 11
8.26600
 21
3.00000
  0
LINE
  8
Bezugspunkte
 62
   1
 39
0.100
  6
CONTINUOUS
 10
7.50000
 20
2.23400
 30
 0
 11
7.50000
 21
3.76600
  0
LINE
  8
Bezugspunkte
 62
   1
 39
0.100
  6
CONTINUOUS
 10
32.03400
 20
3.00000
 30
 0
 11
33.56600
 21
3.00000
  0
LINE
  8
Bezugspunkte
 62
   1
 39
0.100
  6
CONTINUOUS
 10
32.80000
 20
2.23400
 30
 0
 11
32.80000
 21
3.76600
  0
LINE
  8
Bezugspunkte
 62
   1
 39
0.100
  6
CONTINUOUS
 10
19.38400
 20
24.22000
 30
 0
 11
20.91600
 21
24.22000
  0
LINE
  8
Bezugspunkte
 62
   1
 39
0.100
  6
CONTINUOUS
 10
20.15000
 20
23.45400
 30
 0
 11
20.15000
 21
24.98600
  0
LINE
  8
Bezugspunkte
 62
   1
 39
0.100
  6
CONTINUOUS
 10
19.38400
 20
16.22000
 30
 0
 11
20.91600
 21
16.22000
  0
LINE
  8
Bezugspunkte
 62
   1
 39
0.100
  6
CONTINUOUS
 10
20.15000
 20
15.45400
 30
 0
 11
20.15000
 21
16.98600
  0
LINE
  8
Bezugspunkte
 62
   1
 39
0.100
  6
CONTINUOUS
 10
19.38400
 20
21.22900
 30
 0
 11
20.91600
 21
21.22900
  0
LINE
  8
Bezugspunkte
 62
   1
 39
0.100
  6
CONTINUOUS
 10
20.15000
 20
20.46300
 30
 0
 11
20.15000
 21
21.99500
  0
LINE
  8
Bezugspunkte
 62
   1
 39
0.100
  6
CONTINUOUS
 10
19.38400
 20
64.36000
 30
 0
 11
20.91600
 21
64.36000
  0
LINE
  8
Bezugspunkte
 62
   1
 39
0.100
  6
CONTINUOUS
 10
20.15000
 20
63.59400
 30
 0
 11
20.15000
 21
65.12600
  0
LINE
  8
Bezugspunkte
 62
   1
 39
0.100
  6
CONTINUOUS
 10
19.38400
 20
56.36000
 30
 0
 11
20.91600
 21
56.36000
  0
LINE
  8
Bezugspunkte
 62
   1
 39
0.100
  6
CONTINUOUS
 10
20.15000
 20
55.59400
 30
 0
 11
20.15000
 21
57.12600
  0
LINE
  8
Bezugspunkte
 62
   1
 39
0.100
  6
CONTINUOUS
 10
19.38400
 20
61.37000
 30
 0
 11
20.91600
 21
61.37000
  0
LINE
  8
Bezugspunkte
 62
   1
 39
0.100
  6
CONTINUOUS
 10
20.15000
 20
60.60400
 30
 0
 11
20.15000
 21
62.13600
  0
LINE
  8
Bezugspunkte
 62
   1
 39
0.100
  6
CONTINUOUS
 10
9.30800
 20
105.00000
 30
 0
 11
10.84000
 21
105.00000
  0
LINE
  8
Bezugspunkte
 62
   1
 39
0.100
  6
CONTINUOUS
 10
10.07400
 20
104.23400
 30
 0
 11
10.07400
 21
105.76600
  0
LINE
  8
Bezugspunkte
 62
   1
 39
0.100
  6
CONTINUOUS
 10
9.30800
 20
97.00000
 30
 0
 11
10.84000
 21
97.00000
  0
LINE
  8
Bezugspunkte
 62
   1
 39
0.100
  6
CONTINUOUS
 10
10.07400
 20
96.23400
 30
 0
 11
10.07400
 21
97.76600
  0
LINE
  8
Bezugspunkte
 62
   1
 39
0.100
  6
CONTINUOUS
 10
9.30900
 20
101.57800
 30
 0
 11
10.84100
 21
101.57800
  0
LINE
  8
Bezugspunkte
 62
   1
 39
0.100
  6
CONTINUOUS
 10
10.07500
 20
100.81200
 30
 0
 11
10.07500
 21
102.34400
  0
LINE
  8
Bezugspunkte
 62
   1
 39
0.100
  6
CONTINUOUS
 10
29.46300
 20
105.00000
 30
 0
 11
30.99500
 21
105.00000
  0
LINE
  8
Bezugspunkte
 62
   1
 39
0.100
  6
CONTINUOUS
 10
30.22900
 20
104.23400
 30
 0
 11
30.22900
 21
105.76600
  0
LINE
  8
Bezugspunkte
 62
   1
 39
0.100
  6
CONTINUOUS
 10
29.46300
 20
97.00000
 30
 0
 11
30.99500
 21
97.00000
  0
LINE
  8
Bezugspunkte
 62
   1
 39
0.100
  6
CONTINUOUS
 10
30.22900
 20
96.23400
 30
 0
 11
30.22900
 21
97.76600
  0
LINE
  8
Bezugspunkte
 62
   1
 39
0.100
  6
CONTINUOUS
 10
29.46400
 20
101.99200
 30
 0
 11
30.99600
 21
101.99200
  0
LINE
  8
Bezugspunkte
 62
   1
 39
0.100
  6
CONTINUOUS
 10
30.23000
 20
101.22600
 30
 0
 11
30.23000
 21
102.75800
  0
LINE
  8
Bezugspunkte
 62
   1
 39
0.100
  6
CONTINUOUS
 10
29.45900
 20
36.04000
 30
 0
 11
30.99100
 21
36.04000
  0
LINE
  8
Bezugspunkte
 62
   1
 39
0.100
  6
CONTINUOUS
 10
30.22500
 20
35.27400
 30
 0
 11
30.22500
 21
36.80600
  0
LINE
  8
Bezugspunkte
 62
   1
 39
0.100
  6
CONTINUOUS
 10
29.45900
 20
44.04000
 30
 0
 11
30.99100
 21
44.04000
  0
LINE
  8
Bezugspunkte
 62
   1
 39
0.100
  6
CONTINUOUS
 10
30.22500
 20
43.27400
 30
 0
 11
30.22500
 21
44.80600
  0
LINE
  8
Bezugspunkte
 62
   1
 39
0.100
  6
CONTINUOUS
 10
29.46000
 20
40.86900
 30
 0
 11
30.99200
 21
40.86900
  0
LINE
  8
Bezugspunkte
 62
   1
 39
0.100
  6
CONTINUOUS
 10
30.22600
 20
40.10300
 30
 0
 11
30.22600
 21
41.63500
  0
LINE
  8
Bezugspunkte
 62
   1
 39
0.100
  6
CONTINUOUS
 10
9.30900
 20
36.04000
 30
 0
 11
10.84100
 21
36.04000
  0
LINE
  8
Bezugspunkte
 62
   1
 39
0.100
  6
CONTINUOUS
 10
10.07500
 20
35.27400
 30
 0
 11
10.07500
 21
36.80600
  0
LINE
  8
Bezugspunkte
 62
   1
 39
0.100
  6
CONTINUOUS
 10
9.30900
 20
44.04000
 30
 0
 11
10.84100
 21
44.04000
  0
LINE
  8
Bezugspunkte
 62
   1
 39
0.100
  6
CONTINUOUS
 10
10.07500
 20
43.27400
 30
 0
 11
10.07500
 21
44.80600
  0
LINE
  8
Bezugspunkte
 62
   1
 39
0.100
  6
CONTINUOUS
 10
9.30900
 20
41.28900
 30
 0
 11
10.84100
 21
41.28900
  0
LINE
  8
Bezugspunkte
 62
   1
 39
0.100
  6
CONTINUOUS
 10
10.07500
 20
40.52300
 30
 0
 11
10.07500
 21
42.05500
  0
LINE
  8
Bezugspunkte
 62
   1
 39
0.100
  6
CONTINUOUS
 10
19.38400
 20
84.18000
 30
 0
 11
20.91600
 21
84.18000
  0
LINE
  8
Bezugspunkte
 62
   1
 39
0.100
  6
CONTINUOUS
 10
20.15000
 20
83.41400
 30
 0
 11
20.15000
 21
84.94600
  0
LINE
  8
Bezugspunkte
 62
   1
 39
0.100
  6
CONTINUOUS
 10
19.38600
 20
76.18000
 30
 0
 11
20.91800
 21
76.18000
  0
LINE
  8
Bezugspunkte
 62
   1
 39
0.100
  6
CONTINUOUS
 10
20.15200
 20
75.41400
 30
 0
 11
20.15200
 21
76.94600
  0
LINE
  8
Bezugspunkte
 62
   1
 39
0.100
  6
CONTINUOUS
 10
9.30400
 20
84.18000
 30
 0
 11
10.83600
 21
84.18000
  0
LINE
  8
Bezugspunkte
 62
   1
 39
0.100
  6
CONTINUOUS
 10
10.07000
 20
83.41400
 30
 0
 11
10.07000
 21
84.94600
  0
LINE
  8
Bezugspunkte
 62
   1
 39
0.100
  6
CONTINUOUS
 10
18.12400
 20
81.41200
 30
 0
 11
19.65600
 21
81.41200
  0
LINE
  8
Bezugspunkte
 62
   1
 39
0.100
  6
CONTINUOUS
 10
18.89000
 20
80.64600
 30
 0
 11
18.89000
 21
82.17800
  0
ENDSEC
  0
EOF
