  0
SECTION
  2
HEADER
  9
$MEASUREMENT
  70
  1
  9
$INSUNITS
  70
  4
  0
ENDSEC
  0
SECTION
  2
TABLES
  0
TABLE
  2
LTYPE
 70
     1
  0
LTYPE
  2
CONTINUOUS
 70
    64
  3
Ausgezogene Linie
 72
    65
 73
     0
 40
0.0
  0
ENDTAB
  0
TABLE
  2
LAYER
 70
     3
  0
LAYER
  2
Kontur
 70
    64
 62
     7
  6
CONTINUOUS
  0
LAYER
  2
Gravur
 70
    64
 62
     7
  6
CONTINUOUS
  0
LAYER
  2
Bezugspunkte
 70
    64
 62
     1
  6
CONTINUOUS
  0
ENDTAB
  0
TABLE
  2
STYLE
 70
     1
  0
STYLE
  2
TXT
 70
    64
 40
0.0
 41
1.0
 50
0.0
 71
     0
 42
3.500000
  3
TXT
  0
ENDTAB
  0
ENDSEC
  0
SECTION
  2
BLOCKS
  0
ENDSEC
  0
SECTION
  2
ENTITIES
  0
LINE
  8
Kontur
 62
   7
 39
0.100
  6
CONTINUOUS
 10
40.30000
 20
128.40000
 30
 0
 11
40.30000
 21
0.00000
  0
LINE
  8
Kontur
 62
   7
 39
0.100
  6
CONTINUOUS
 10
40.30000
 20
0.00000
 30
 0
 11
0.00000
 21
0.00000
  0
LINE
  8
Kontur
 62
   7
 39
0.100
  6
CONTINUOUS
 10
0.00000
 20
0.00000
 30
 0
 11
0.00000
 21
128.40000
  0
LINE
  8
Kontur
 62
   7
 39
0.100
  6
CONTINUOUS
 10
0.00000
 20
128.40000
 30
 0
 11
40.30000
 21
128.40000
  0
ARC
  8
Kontur
 62
   7
 39
0.100
  6
CONTINUOUS
 10
0.35355
 20
122.74855
 30
 0
 40
0.50000
 50
135.00000
 51
314.99999
  0
LINE
  8
Kontur
 62
   7
 39
0.100
  6
CONTINUOUS
 10
0.70711
 20
122.39500
 30
 0
 11
39.59289
 21
122.39500
  0
ARC
  8
Kontur
 62
   7
 39
0.100
  6
CONTINUOUS
 10
39.94645
 20
122.74855
 30
 0
 40
0.50000
 50
225.00000
 51
404.99999
  0
LINE
  8
Kontur
 62
   7
 39
0.100
  6
CONTINUOUS
 10
40.30000
 20
123.10211
 30
 0
 11
40.30000
 21
127.68789
  0
ARC
  8
Kontur
 62
   7
 39
0.100
  6
CONTINUOUS
 10
39.94645
 20
128.04145
 30
 0
 40
0.50000
 50
315.00000
 51
494.99999
  0
LINE
  8
Kontur
 62
   7
 39
0.100
  6
CONTINUOUS
 10
39.59289
 20
128.39500
 30
 0
 11
0.70711
 21
128.39500
  0
ARC
  8
Kontur
 62
   7
 39
0.100
  6
CONTINUOUS
 10
0.35355
 20
128.04145
 30
 0
 40
0.50000
 50
45.00000
 51
224.99999
  0
LINE
  8
Kontur
 62
   7
 39
0.100
  6
CONTINUOUS
 10
0.00000
 20
127.68789
 30
 0
 11
0.00000
 21
123.10211
  0
ARC
  8
Kontur
 62
   7
 39
0.100
  6
CONTINUOUS
 10
0.35355
 20
0.35355
 30
 0
 40
0.50000
 50
135.00000
 51
314.99999
  0
LINE
  8
Kontur
 62
   7
 39
0.100
  6
CONTINUOUS
 10
0.70711
 20
0.00000
 30
 0
 11
39.59289
 21
0.00000
  0
ARC
  8
Kontur
 62
   7
 39
0.100
  6
CONTINUOUS
 10
39.94645
 20
0.35355
 30
 0
 40
0.50000
 50
225.00000
 51
404.99999
  0
LINE
  8
Kontur
 62
   7
 39
0.100
  6
CONTINUOUS
 10
40.30000
 20
0.70711
 30
 0
 11
40.30000
 21
5.29289
  0
ARC
  8
Kontur
 62
   7
 39
0.100
  6
CONTINUOUS
 10
39.94645
 20
5.64645
 30
 0
 40
0.50000
 50
315.00000
 51
494.99999
  0
LINE
  8
Kontur
 62
   7
 39
0.100
  6
CONTINUOUS
 10
39.59289
 20
6.00000
 30
 0
 11
0.70711
 21
6.00000
  0
ARC
  8
Kontur
 62
   7
 39
0.100
  6
CONTINUOUS
 10
0.35355
 20
5.64645
 30
 0
 40
0.50000
 50
45.00000
 51
224.99999
  0
LINE
  8
Kontur
 62
   7
 39
0.100
  6
CONTINUOUS
 10
0.00000
 20
5.29289
 30
 0
 11
0.00000
 21
0.70711
  0
LINE
  8
Gravur
 62
   255
 39
0.400
  6
CONTINUOUS
 10
2.05733
 20
119.65333
 30
 0
 11
3.97400
 21
119.65333
  0
LINE
  8
Gravur
 62
   255
 39
0.400
  6
CONTINUOUS
 10
1.67400
 20
118.69500
 30
 0
 11
3.01567
 21
122.14500
  0
LINE
  8
Gravur
 62
   255
 39
0.400
  6
CONTINUOUS
 10
3.01567
 20
122.14500
 30
 0
 11
4.35733
 21
118.69500
  0
LINE
  8
Gravur
 62
   255
 39
0.400
  6
CONTINUOUS
 10
5.27800
 20
118.69500
 30
 0
 11
5.27800
 21
120.99500
  0
LINE
  8
Gravur
 62
   255
 39
0.400
  6
CONTINUOUS
 10
5.27800
 20
120.99500
 30
 0
 11
5.27800
 21
120.03667
  0
ARC
  8
Gravur
 62
   255
 39
0.400
  6
CONTINUOUS
 10
6.23633
 20
120.03667
 30
 0
 40
0.95833
 50
0.00000
 51
180.00000
  0
LINE
  8
Gravur
 62
   255
 39
0.400
  6
CONTINUOUS
 10
7.19467
 20
120.03667
 30
 0
 11
7.19467
 21
118.69500
  0
LINE
  8
Gravur
 62
   255
 39
0.400
  6
CONTINUOUS
 10
8.11500
 20
119.65233
 30
 0
 11
8.11500
 21
120.03567
  0
ARC
  8
Gravur
 62
   255
 39
0.400
  6
CONTINUOUS
 10
9.07333
 20
120.03567
 30
 0
 40
0.95833
 50
0.00000
 51
180.00000
  0
LINE
  8
Gravur
 62
   255
 39
0.400
  6
CONTINUOUS
 10
10.03167
 20
120.03567
 30
 0
 11
10.03167
 21
119.65233
  0
ARC
  8
Gravur
 62
   255
 39
0.400
  6
CONTINUOUS
 10
9.07333
 20
119.65233
 30
 0
 40
0.95833
 50
-180.00000
 51
0.00000
  0
LINE
  8
Gravur
 62
   255
 39
0.400
  6
CONTINUOUS
 10
10.95200
 20
122.14400
 30
 0
 11
10.95200
 21
121.95233
  0
LINE
  8
Gravur
 62
   255
 39
0.400
  6
CONTINUOUS
 10
10.95200
 20
120.99400
 30
 0
 11
10.95200
 21
118.69400
  0
LINE
  8
Gravur
 62
   255
 39
0.400
  6
CONTINUOUS
 10
11.87200
 20
122.14400
 30
 0
 11
11.87200
 21
118.69400
  0
LINE
  8
Gravur
 62
   255
 39
0.400
  6
CONTINUOUS
 10
11.87200
 20
118.69400
 30
 0
 11
11.87200
 21
119.46067
  0
LINE
  8
Gravur
 62
   255
 39
0.400
  6
CONTINUOUS
 10
11.87200
 20
119.46067
 30
 0
 11
13.78867
 21
120.99400
  0
LINE
  8
Gravur
 62
   255
 39
0.400
  6
CONTINUOUS
 10
13.78867
 20
120.99400
 30
 0
 11
12.63867
 21
120.07400
  0
LINE
  8
Gravur
 62
   255
 39
0.400
  6
CONTINUOUS
 10
12.63867
 20
120.07400
 30
 0
 11
13.78867
 21
118.69400
  0
LINE
  8
Gravur
 62
   255
 39
0.400
  6
CONTINUOUS
 10
14.70900
 20
122.14400
 30
 0
 11
14.70900
 21
121.95233
  0
LINE
  8
Gravur
 62
   255
 39
0.400
  6
CONTINUOUS
 10
14.70900
 20
120.99400
 30
 0
 11
14.70900
 21
118.69400
  0
ARC
  8
Gravur
 62
   255
 39
0.400
  6
CONTINUOUS
 10
16.49961
 20
119.96934
 30
 0
 40
1.30242
 50
228.05192
 51
293.02344
  0
ARC
  8
Gravur
 62
   255
 39
0.400
  6
CONTINUOUS
 10
16.81727
 20
119.22348
 30
 0
 40
0.49173
 50
292.94873
 51
431.82316
  0
LINE
  8
Gravur
 62
   255
 39
0.400
  6
CONTINUOUS
 10
16.97067
 20
119.69067
 30
 0
 11
15.93567
 21
120.03567
  0
ARC
  8
Gravur
 62
   255
 39
0.400
  6
CONTINUOUS
 10
16.07374
 20
120.45497
 30
 0
 40
0.44145
 50
119.10762
 51
251.77304
  0
ARC
  8
Gravur
 62
   255
 39
0.400
  6
CONTINUOUS
 10
16.52713
 20
119.65845
 30
 0
 40
1.35795
 50
54.50145
 51
119.47297
  0
LINE
  8
Gravur
 62
   255
 39
0.400
  6
CONTINUOUS
 10
20.68900
 20
118.69400
 30
 0
 11
20.68900
 21
122.14400
  0
LINE
  8
Gravur
 62
   255
 39
0.400
  6
CONTINUOUS
 10
20.68900
 20
122.14400
 30
 0
 11
22.98900
 21
118.69400
  0
LINE
  8
Gravur
 62
   255
 39
0.400
  6
CONTINUOUS
 10
22.98900
 20
118.69400
 30
 0
 11
22.98900
 21
122.14400
  0
LINE
  8
Gravur
 62
   255
 39
0.400
  6
CONTINUOUS
 10
23.90900
 20
119.65233
 30
 0
 11
23.90900
 21
120.03567
  0
ARC
  8
Gravur
 62
   255
 39
0.400
  6
CONTINUOUS
 10
24.86733
 20
120.03567
 30
 0
 40
0.95833
 50
0.00000
 51
180.00000
  0
LINE
  8
Gravur
 62
   255
 39
0.400
  6
CONTINUOUS
 10
25.82567
 20
120.03567
 30
 0
 11
25.82567
 21
119.65233
  0
ARC
  8
Gravur
 62
   255
 39
0.400
  6
CONTINUOUS
 10
24.86733
 20
119.65233
 30
 0
 40
0.95833
 50
-180.00000
 51
0.00000
  0
LINE
  8
Gravur
 62
   255
 39
0.400
  6
CONTINUOUS
 10
26.74500
 20
118.69400
 30
 0
 11
26.74500
 21
120.99400
  0
LINE
  8
Gravur
 62
   255
 39
0.400
  6
CONTINUOUS
 10
26.74500
 20
120.99400
 30
 0
 11
26.74500
 21
120.22733
  0
ARC
  8
Gravur
 62
   255
 39
0.400
  6
CONTINUOUS
 10
27.51167
 20
120.22733
 30
 0
 40
0.76667
 50
0.00000
 51
180.00000
  0
LINE
  8
Gravur
 62
   255
 39
0.400
  6
CONTINUOUS
 10
28.27833
 20
120.22733
 30
 0
 11
28.27833
 21
118.69400
  0
LINE
  8
Gravur
 62
   255
 39
0.400
  6
CONTINUOUS
 10
28.27833
 20
118.69400
 30
 0
 11
28.27833
 21
120.22733
  0
ARC
  8
Gravur
 62
   255
 39
0.400
  6
CONTINUOUS
 10
29.04500
 20
120.22733
 30
 0
 40
0.76667
 50
0.00000
 51
180.00000
  0
LINE
  8
Gravur
 62
   255
 39
0.400
  6
CONTINUOUS
 10
29.81167
 20
120.22733
 30
 0
 11
29.81167
 21
118.69400
  0
LINE
  8
Gravur
 62
   255
 39
0.400
  6
CONTINUOUS
 10
32.72433
 20
120.99300
 30
 0
 11
32.72433
 21
119.65133
  0
ARC
  8
Gravur
 62
   255
 39
0.400
  6
CONTINUOUS
 10
31.72767
 20
119.65133
 30
 0
 40
0.99667
 50
-180.00000
 51
0.00000
  0
LINE
  8
Gravur
 62
   255
 39
0.400
  6
CONTINUOUS
 10
30.73100
 20
119.65133
 30
 0
 11
30.73100
 21
120.03467
  0
ARC
  8
Gravur
 62
   255
 39
0.400
  6
CONTINUOUS
 10
31.72767
 20
120.03467
 30
 0
 40
0.99667
 50
0.00000
 51
180.00000
  0
LINE
  8
Gravur
 62
   255
 39
0.400
  6
CONTINUOUS
 10
32.72433
 20
120.03467
 30
 0
 11
32.72433
 21
119.11467
  0
ARC
  8
Gravur
 62
   255
 39
0.400
  6
CONTINUOUS
 10
33.28011
 20
119.16621
 30
 0
 40
0.55816
 50
185.29897
 51
260.11981
  0
LINE
  8
Gravur
 62
   255
 39
0.400
  6
CONTINUOUS
 10
36.02067
 20
122.14200
 30
 0
 11
36.02067
 21
119.65033
  0
ARC
  8
Gravur
 62
   255
 39
0.400
  6
CONTINUOUS
 10
35.06233
 20
119.61200
 30
 0
 40
0.95910
 50
-177.70939
 51
2.29061
  0
LINE
  8
Gravur
 62
   255
 39
0.400
  6
CONTINUOUS
 10
34.10400
 20
119.57367
 30
 0
 11
34.10400
 21
120.03367
  0
ARC
  8
Gravur
 62
   255
 39
0.400
  6
CONTINUOUS
 10
35.06233
 20
120.03367
 30
 0
 40
0.95833
 50
0.00000
 51
180.00000
  0
LINE
  8
Gravur
 62
   255
 39
0.400
  6
CONTINUOUS
 10
36.02067
 20
120.03367
 30
 0
 11
36.02067
 21
118.69200
  0
ARC
  8
Gravur
 62
   255
 39
0.400
  6
CONTINUOUS
 10
37.81061
 20
119.96634
 30
 0
 40
1.30242
 50
228.05192
 51
293.02344
  0
ARC
  8
Gravur
 62
   255
 39
0.400
  6
CONTINUOUS
 10
38.12827
 20
119.22048
 30
 0
 40
0.49173
 50
292.94873
 51
431.82316
  0
LINE
  8
Gravur
 62
   255
 39
0.400
  6
CONTINUOUS
 10
38.28167
 20
119.68767
 30
 0
 11
37.24667
 21
120.03267
  0
ARC
  8
Gravur
 62
   255
 39
0.400
  6
CONTINUOUS
 10
37.38474
 20
120.45197
 30
 0
 40
0.44145
 50
119.10762
 51
251.77304
  0
ARC
  8
Gravur
 62
   255
 39
0.400
  6
CONTINUOUS
 10
37.83813
 20
119.65545
 30
 0
 40
1.35795
 50
54.50145
 51
119.47297
  0
LINE
  8
Gravur
 62
   7
 39
0.600
  6
CONTINUOUS
 10
11.21633
 20
117.30000
 30
 0
 11
12.41078
 21
113.00000
  0
LINE
  8
Gravur
 62
   7
 39
0.600
  6
CONTINUOUS
 10
12.41078
 20
113.00000
 30
 0
 11
13.60522
 21
117.30000
  0
LINE
  8
Gravur
 62
   7
 39
0.600
  6
CONTINUOUS
 10
13.60522
 20
117.30000
 30
 0
 11
14.79967
 21
113.00000
  0
LINE
  8
Gravur
 62
   7
 39
0.600
  6
CONTINUOUS
 10
14.79967
 20
113.00000
 30
 0
 11
15.99411
 21
117.30000
  0
LINE
  8
Gravur
 62
   7
 39
0.600
  6
CONTINUOUS
 10
17.14133
 20
117.30000
 30
 0
 11
17.14133
 21
117.06111
  0
LINE
  8
Gravur
 62
   7
 39
0.600
  6
CONTINUOUS
 10
17.14133
 20
115.86667
 30
 0
 11
17.14133
 21
113.00000
  0
LINE
  8
Gravur
 62
   7
 39
0.600
  6
CONTINUOUS
 10
18.28833
 20
117.30000
 30
 0
 11
18.28833
 21
113.57333
  0
ARC
  8
Gravur
 62
   7
 39
0.600
  6
CONTINUOUS
 10
18.87103
 20
113.57317
 30
 0
 40
0.58270
 50
179.98432
 51
259.62682
  0
ARC
  8
Gravur
 62
   7
 39
0.600
  6
CONTINUOUS
 10
20.99845
 20
114.58956
 30
 0
 40
1.62331
 50
228.05192
 51
293.02344
  0
ARC
  8
Gravur
 62
   7
 39
0.600
  6
CONTINUOUS
 10
21.39437
 20
113.65993
 30
 0
 40
0.61288
 50
292.94873
 51
431.82316
  0
LINE
  8
Gravur
 62
   7
 39
0.600
  6
CONTINUOUS
 10
21.58556
 20
114.24222
 30
 0
 11
20.29556
 21
114.67222
  0
ARC
  8
Gravur
 62
   7
 39
0.600
  6
CONTINUOUS
 10
20.46765
 20
115.19483
 30
 0
 40
0.55021
 50
119.10762
 51
251.77304
  0
ARC
  8
Gravur
 62
   7
 39
0.600
  6
CONTINUOUS
 10
21.03274
 20
114.20207
 30
 0
 40
1.69252
 50
54.50145
 51
119.47297
  0
LINE
  8
Gravur
 62
   7
 39
0.600
  6
CONTINUOUS
 10
23.16133
 20
114.19444
 30
 0
 11
23.16133
 21
114.67222
  0
ARC
  8
Gravur
 62
   7
 39
0.600
  6
CONTINUOUS
 10
24.35578
 20
114.67222
 30
 0
 40
1.19444
 50
0.00000
 51
180.00000
  0
LINE
  8
Gravur
 62
   7
 39
0.600
  6
CONTINUOUS
 10
25.55022
 20
114.67222
 30
 0
 11
25.55022
 21
114.19444
  0
ARC
  8
Gravur
 62
   7
 39
0.600
  6
CONTINUOUS
 10
24.35578
 20
114.19444
 30
 0
 40
1.19444
 50
-180.00000
 51
0.00000
  0
LINE
  8
Gravur
 62
   7
 39
0.600
  6
CONTINUOUS
 10
26.69633
 20
113.00000
 30
 0
 11
26.69633
 21
115.86667
  0
LINE
  8
Gravur
 62
   7
 39
0.600
  6
CONTINUOUS
 10
26.69633
 20
115.86667
 30
 0
 11
26.69633
 21
114.67222
  0
ARC
  8
Gravur
 62
   7
 39
0.600
  6
CONTINUOUS
 10
27.89078
 20
114.67222
 30
 0
 40
1.19444
 50
0.00000
 51
180.00000
  0
LINE
  8
Gravur
 62
   7
 39
0.600
  6
CONTINUOUS
 10
29.08522
 20
114.67222
 30
 0
 11
29.08522
 21
113.00000
  0
ARC
  8
Gravur
 62
   7
 39
0.400
  6
CONTINUOUS
 10
6.03477
 20
75.90061
 30
 0
 40
0.70606
 50
42.74595
 51
180.39666
  0
LINE
  8
Gravur
 62
   7
 39
0.400
  6
CONTINUOUS
 10
5.32873
 20
75.89572
 30
 0
 11
5.32873
 21
75.61094
  0
ARC
  8
Gravur
 62
   7
 39
0.400
  6
CONTINUOUS
 10
6.03620
 20
75.61153
 30
 0
 40
0.70747
 50
180.04758
 51
328.39092
  0
LINE
  8
Gravur
 62
   7
 39
0.400
  6
CONTINUOUS
 10
7.32273
 20
77.46200
 30
 0
 11
7.32273
 21
75.24073
  0
ARC
  8
Gravur
 62
   7
 39
0.400
  6
CONTINUOUS
 10
7.67005
 20
75.24064
 30
 0
 40
0.34731
 50
179.98432
 51
259.62682
  0
LINE
  8
Gravur
 62
   7
 39
0.400
  6
CONTINUOUS
 10
8.29173
 20
75.61094
 30
 0
 11
8.29173
 21
75.89572
  0
ARC
  8
Gravur
 62
   7
 39
0.400
  6
CONTINUOUS
 10
9.00368
 20
75.89572
 30
 0
 40
0.71194
 50
0.00000
 51
180.00000
  0
LINE
  8
Gravur
 62
   7
 39
0.400
  6
CONTINUOUS
 10
9.71562
 20
75.89572
 30
 0
 11
9.71562
 21
75.61094
  0
ARC
  8
Gravur
 62
   7
 39
0.400
  6
CONTINUOUS
 10
9.00368
 20
75.61094
 30
 0
 40
0.71194
 50
-180.00000
 51
0.00000
  0
ARC
  8
Gravur
 62
   7
 39
0.400
  6
CONTINUOUS
 10
11.10477
 20
75.90061
 30
 0
 40
0.70606
 50
42.74595
 51
180.39666
  0
LINE
  8
Gravur
 62
   7
 39
0.400
  6
CONTINUOUS
 10
10.39873
 20
75.89572
 30
 0
 11
10.39873
 21
75.61094
  0
ARC
  8
Gravur
 62
   7
 39
0.400
  6
CONTINUOUS
 10
11.10620
 20
75.61153
 30
 0
 40
0.70747
 50
180.04758
 51
328.39092
  0
LINE
  8
Gravur
 62
   7
 39
0.400
  6
CONTINUOUS
 10
12.39173
 20
77.46200
 30
 0
 11
12.39173
 21
74.89900
  0
LINE
  8
Gravur
 62
   7
 39
0.400
  6
CONTINUOUS
 10
12.39173
 20
74.89900
 30
 0
 11
12.39173
 21
75.46856
  0
LINE
  8
Gravur
 62
   7
 39
0.400
  6
CONTINUOUS
 10
12.39173
 20
75.46856
 30
 0
 11
13.81562
 21
76.60767
  0
LINE
  8
Gravur
 62
   7
 39
0.400
  6
CONTINUOUS
 10
13.81562
 20
76.60767
 30
 0
 11
12.96129
 21
75.92420
  0
LINE
  8
Gravur
 62
   7
 39
0.400
  6
CONTINUOUS
 10
12.96129
 20
75.92420
 30
 0
 11
13.81562
 21
74.89900
  0
LINE
  8
Gravur
 62
   7
 39
0.400
  6
CONTINUOUS
 10
6.21073
 20
71.51300
 30
 0
 11
6.21073
 21
73.22167
  0
LINE
  8
Gravur
 62
   7
 39
0.400
  6
CONTINUOUS
 10
6.21073
 20
73.22167
 30
 0
 11
6.21073
 21
72.65211
  0
ARC
  8
Gravur
 62
   7
 39
0.400
  6
CONTINUOUS
 10
6.84004
 20
72.65213
 30
 0
 40
0.62931
 50
140.69073
 51
180.00162
  0
ARC
  8
Gravur
 62
   7
 39
0.400
  6
CONTINUOUS
 10
6.66638
 20
72.79327
 30
 0
 40
0.40553
 50
39.42406
 51
140.57594
  0
LINE
  8
Gravur
 62
   7
 39
0.400
  6
CONTINUOUS
 10
9.11558
 20
73.22167
 30
 0
 11
9.11558
 21
72.22494
  0
ARC
  8
Gravur
 62
   7
 39
0.400
  6
CONTINUOUS
 10
8.37516
 20
72.22494
 30
 0
 40
0.74042
 50
-180.00000
 51
0.00000
  0
LINE
  8
Gravur
 62
   7
 39
0.400
  6
CONTINUOUS
 10
7.63473
 20
72.22494
 30
 0
 11
7.63473
 21
72.50972
  0
ARC
  8
Gravur
 62
   7
 39
0.400
  6
CONTINUOUS
 10
8.37516
 20
72.50972
 30
 0
 40
0.74042
 50
0.00000
 51
180.00000
  0
LINE
  8
Gravur
 62
   7
 39
0.400
  6
CONTINUOUS
 10
9.11558
 20
72.50972
 30
 0
 11
9.11558
 21
71.82626
  0
ARC
  8
Gravur
 62
   7
 39
0.400
  6
CONTINUOUS
 10
9.52846
 20
71.86455
 30
 0
 40
0.41466
 50
185.29897
 51
260.11981
  0
LINE
  8
Gravur
 62
   7
 39
0.400
  6
CONTINUOUS
 10
10.39703
 20
74.07600
 30
 0
 11
10.39703
 21
73.22167
  0
LINE
  8
Gravur
 62
   7
 39
0.400
  6
CONTINUOUS
 10
10.39703
 20
73.22167
 30
 0
 11
10.82420
 21
73.22167
  0
LINE
  8
Gravur
 62
   7
 39
0.400
  6
CONTINUOUS
 10
10.82420
 20
73.22167
 30
 0
 11
10.11226
 21
73.22167
  0
LINE
  8
Gravur
 62
   7
 39
0.400
  6
CONTINUOUS
 10
10.11226
 20
73.22167
 30
 0
 11
10.39703
 21
73.22167
  0
LINE
  8
Gravur
 62
   7
 39
0.400
  6
CONTINUOUS
 10
10.39703
 20
73.22167
 30
 0
 11
10.39703
 21
71.85473
  0
ARC
  8
Gravur
 62
   7
 39
0.400
  6
CONTINUOUS
 10
10.74435
 20
71.85464
 30
 0
 40
0.34731
 50
179.98432
 51
259.62682
  0
LINE
  8
Gravur
 62
   7
 39
0.400
  6
CONTINUOUS
 10
11.50673
 20
72.36733
 30
 0
 11
12.93062
 21
72.36733
  0
LINE
  8
Gravur
 62
   7
 39
0.400
  6
CONTINUOUS
 10
12.93062
 20
72.36733
 30
 0
 11
12.93062
 21
72.50972
  0
ARC
  8
Gravur
 62
   7
 39
0.400
  6
CONTINUOUS
 10
12.21868
 20
72.50972
 30
 0
 40
0.71194
 50
0.00000
 51
180.00000
  0
LINE
  8
Gravur
 62
   7
 39
0.400
  6
CONTINUOUS
 10
11.50673
 20
72.50972
 30
 0
 11
11.50673
 21
72.22494
  0
ARC
  8
Gravur
 62
   7
 39
0.400
  6
CONTINUOUS
 10
12.25331
 20
72.22435
 30
 0
 40
0.74658
 50
179.95424
 51
322.44599
  0
LINE
  8
Gravur
 62
   7
 39
0.400
  6
CONTINUOUS
 10
24.94673
 20
34.75900
 30
 0
 11
24.94673
 21
36.46767
  0
LINE
  8
Gravur
 62
   7
 39
0.400
  6
CONTINUOUS
 10
24.94673
 20
36.46767
 30
 0
 11
24.94673
 21
35.89811
  0
ARC
  8
Gravur
 62
   7
 39
0.400
  6
CONTINUOUS
 10
25.57604
 20
35.89813
 30
 0
 40
0.62931
 50
140.69073
 51
180.00162
  0
ARC
  8
Gravur
 62
   7
 39
0.400
  6
CONTINUOUS
 10
25.40238
 20
36.03927
 30
 0
 40
0.40553
 50
39.42406
 51
140.57594
  0
LINE
  8
Gravur
 62
   7
 39
0.400
  6
CONTINUOUS
 10
27.85158
 20
36.46767
 30
 0
 11
27.85158
 21
35.47094
  0
ARC
  8
Gravur
 62
   7
 39
0.400
  6
CONTINUOUS
 10
27.11116
 20
35.47094
 30
 0
 40
0.74042
 50
-180.00000
 51
0.00000
  0
LINE
  8
Gravur
 62
   7
 39
0.400
  6
CONTINUOUS
 10
26.37073
 20
35.47094
 30
 0
 11
26.37073
 21
35.75572
  0
ARC
  8
Gravur
 62
   7
 39
0.400
  6
CONTINUOUS
 10
27.11116
 20
35.75572
 30
 0
 40
0.74042
 50
0.00000
 51
180.00000
  0
LINE
  8
Gravur
 62
   7
 39
0.400
  6
CONTINUOUS
 10
27.85158
 20
35.75572
 30
 0
 11
27.85158
 21
35.07226
  0
ARC
  8
Gravur
 62
   7
 39
0.400
  6
CONTINUOUS
 10
28.26446
 20
35.11055
 30
 0
 40
0.41466
 50
185.29897
 51
260.11981
  0
LINE
  8
Gravur
 62
   7
 39
0.400
  6
CONTINUOUS
 10
28.87773
 20
34.76000
 30
 0
 11
28.87773
 21
36.46867
  0
LINE
  8
Gravur
 62
   7
 39
0.400
  6
CONTINUOUS
 10
28.87773
 20
36.46867
 30
 0
 11
28.87773
 21
35.75672
  0
ARC
  8
Gravur
 62
   7
 39
0.400
  6
CONTINUOUS
 10
29.58968
 20
35.75672
 30
 0
 40
0.71194
 50
0.00000
 51
180.00000
  0
LINE
  8
Gravur
 62
   7
 39
0.400
  6
CONTINUOUS
 10
30.30162
 20
35.75672
 30
 0
 11
30.30162
 21
34.76000
  0
LINE
  8
Gravur
 62
   7
 39
0.400
  6
CONTINUOUS
 10
32.40862
 20
36.46867
 30
 0
 11
32.40862
 21
35.47194
  0
ARC
  8
Gravur
 62
   7
 39
0.400
  6
CONTINUOUS
 10
31.69668
 20
35.44347
 30
 0
 40
0.71251
 50
-177.70939
 51
2.29061
  0
LINE
  8
Gravur
 62
   7
 39
0.400
  6
CONTINUOUS
 10
30.98473
 20
35.41499
 30
 0
 11
30.98473
 21
35.75672
  0
ARC
  8
Gravur
 62
   7
 39
0.400
  6
CONTINUOUS
 10
31.69668
 20
35.75672
 30
 0
 40
0.71194
 50
0.00000
 51
180.00000
  0
LINE
  8
Gravur
 62
   7
 39
0.400
  6
CONTINUOUS
 10
32.40862
 20
35.75672
 30
 0
 11
32.40862
 21
34.61761
  0
ARC
  8
Gravur
 62
   7
 39
0.400
  6
CONTINUOUS
 10
31.69065
 20
34.61382
 30
 0
 40
0.71798
 50
-134.87369
 51
0.30252
  0
LINE
  8
Gravur
 62
   7
 39
0.400
  6
CONTINUOUS
 10
33.09173
 20
35.61533
 30
 0
 11
34.51562
 21
35.61533
  0
LINE
  8
Gravur
 62
   7
 39
0.400
  6
CONTINUOUS
 10
34.51562
 20
35.61533
 30
 0
 11
34.51562
 21
35.75772
  0
ARC
  8
Gravur
 62
   7
 39
0.400
  6
CONTINUOUS
 10
33.80368
 20
35.75772
 30
 0
 40
0.71194
 50
0.00000
 51
180.00000
  0
LINE
  8
Gravur
 62
   7
 39
0.400
  6
CONTINUOUS
 10
33.09173
 20
35.75772
 30
 0
 11
33.09173
 21
35.47294
  0
ARC
  8
Gravur
 62
   7
 39
0.400
  6
CONTINUOUS
 10
33.83831
 20
35.47235
 30
 0
 40
0.74658
 50
179.95424
 51
322.44599
  0
ARC
  8
Gravur
 62
   7
 39
0.400
  6
CONTINUOUS
 10
6.82851
 20
35.70645
 30
 0
 40
0.96757
 50
228.05192
 51
293.02344
  0
ARC
  8
Gravur
 62
   7
 39
0.400
  6
CONTINUOUS
 10
7.06450
 20
35.15235
 30
 0
 40
0.36530
 50
292.94873
 51
431.82316
  0
LINE
  8
Gravur
 62
   7
 39
0.400
  6
CONTINUOUS
 10
7.17846
 20
35.49942
 30
 0
 11
6.40956
 21
35.75572
  0
ARC
  8
Gravur
 62
   7
 39
0.400
  6
CONTINUOUS
 10
6.51213
 20
36.06722
 30
 0
 40
0.32795
 50
119.10762
 51
251.77304
  0
ARC
  8
Gravur
 62
   7
 39
0.400
  6
CONTINUOUS
 10
6.84895
 20
35.47549
 30
 0
 40
1.00882
 50
54.50145
 51
119.47297
  0
LINE
  8
Gravur
 62
   7
 39
0.400
  6
CONTINUOUS
 10
8.11873
 20
37.32300
 30
 0
 11
8.11873
 21
34.76000
  0
LINE
  8
Gravur
 62
   7
 39
0.400
  6
CONTINUOUS
 10
8.11873
 20
34.76000
 30
 0
 11
8.11873
 21
35.75672
  0
ARC
  8
Gravur
 62
   7
 39
0.400
  6
CONTINUOUS
 10
8.83068
 20
35.75672
 30
 0
 40
0.71194
 50
0.00000
 51
180.00000
  0
LINE
  8
Gravur
 62
   7
 39
0.400
  6
CONTINUOUS
 10
9.54262
 20
35.75672
 30
 0
 11
9.54262
 21
34.76000
  0
LINE
  8
Gravur
 62
   7
 39
0.400
  6
CONTINUOUS
 10
10.22573
 20
37.32300
 30
 0
 11
10.22573
 21
37.18061
  0
LINE
  8
Gravur
 62
   7
 39
0.400
  6
CONTINUOUS
 10
10.22573
 20
36.46867
 30
 0
 11
10.22573
 21
34.76000
  0
LINE
  8
Gravur
 62
   7
 39
0.400
  6
CONTINUOUS
 10
10.88026
 20
36.46867
 30
 0
 11
11.59220
 21
36.46867
  0
ARC
  8
Gravur
 62
   7
 39
0.400
  6
CONTINUOUS
 10
11.58995
 20
36.89809
 30
 0
 40
0.42492
 50
89.69622
 51
180.30378
  0
LINE
  8
Gravur
 62
   7
 39
0.400
  6
CONTINUOUS
 10
11.16503
 20
36.89583
 30
 0
 11
11.16503
 21
34.76000
  0
LINE
  8
Gravur
 62
   7
 39
0.400
  6
CONTINUOUS
 10
12.53103
 20
37.32300
 30
 0
 11
12.53103
 21
36.46867
  0
LINE
  8
Gravur
 62
   7
 39
0.400
  6
CONTINUOUS
 10
12.53103
 20
36.46867
 30
 0
 11
12.95820
 21
36.46867
  0
LINE
  8
Gravur
 62
   7
 39
0.400
  6
CONTINUOUS
 10
12.95820
 20
36.46867
 30
 0
 11
12.24626
 21
36.46867
  0
LINE
  8
Gravur
 62
   7
 39
0.400
  6
CONTINUOUS
 10
12.24626
 20
36.46867
 30
 0
 11
12.53103
 21
36.46867
  0
LINE
  8
Gravur
 62
   7
 39
0.400
  6
CONTINUOUS
 10
12.53103
 20
36.46867
 30
 0
 11
12.53103
 21
35.10173
  0
ARC
  8
Gravur
 62
   7
 39
0.400
  6
CONTINUOUS
 10
12.87835
 20
35.10164
 30
 0
 40
0.34731
 50
179.98432
 51
259.62682
  0
ARC
  8
Gravur
 62
   7
 39
0.400
  6
CONTINUOUS
 10
6.57000
 20
20.72000
 30
 0
 40
2.00000
 50
180.00000
 51
270.00000
  0
LINE
  8
Gravur
 62
   7
 39
0.400
  6
CONTINUOUS
 10
6.57000
 20
18.72000
 30
 0
 11
13.57000
 21
18.72000
  0
ARC
  8
Gravur
 62
   7
 39
0.400
  6
CONTINUOUS
 10
13.57000
 20
20.72000
 30
 0
 40
2.00000
 50
270.00000
 51
360.00000
  0
LINE
  8
Gravur
 62
   7
 39
0.400
  6
CONTINUOUS
 10
15.57000
 20
20.72000
 30
 0
 11
15.57000
 21
27.72000
  0
ARC
  8
Gravur
 62
   7
 39
0.400
  6
CONTINUOUS
 10
13.57000
 20
27.72000
 30
 0
 40
2.00000
 50
0.00000
 51
90.00000
  0
LINE
  8
Gravur
 62
   7
 39
0.400
  6
CONTINUOUS
 10
13.57000
 20
29.72000
 30
 0
 11
6.57000
 21
29.72000
  0
ARC
  8
Gravur
 62
   7
 39
0.400
  6
CONTINUOUS
 10
6.57000
 20
27.72000
 30
 0
 40
2.00000
 50
90.00000
 51
180.00000
  0
LINE
  8
Gravur
 62
   7
 39
0.400
  6
CONTINUOUS
 10
4.57000
 20
27.72000
 30
 0
 11
4.57000
 21
20.72000
  0
LINE
  8
Gravur
 62
   7
 39
0.400
  6
CONTINUOUS
 10
5.94173
 20
14.93900
 30
 0
 11
5.94173
 21
16.64767
  0
LINE
  8
Gravur
 62
   7
 39
0.400
  6
CONTINUOUS
 10
5.94173
 20
16.64767
 30
 0
 11
5.94173
 21
15.93572
  0
ARC
  8
Gravur
 62
   7
 39
0.400
  6
CONTINUOUS
 10
6.65368
 20
15.93572
 30
 0
 40
0.71194
 50
0.00000
 51
180.00000
  0
LINE
  8
Gravur
 62
   7
 39
0.400
  6
CONTINUOUS
 10
7.36562
 20
15.93572
 30
 0
 11
7.36562
 21
14.93900
  0
LINE
  8
Gravur
 62
   7
 39
0.400
  6
CONTINUOUS
 10
8.04973
 20
15.65094
 30
 0
 11
8.04973
 21
15.93572
  0
ARC
  8
Gravur
 62
   7
 39
0.400
  6
CONTINUOUS
 10
8.76168
 20
15.93572
 30
 0
 40
0.71194
 50
0.00000
 51
180.00000
  0
LINE
  8
Gravur
 62
   7
 39
0.400
  6
CONTINUOUS
 10
9.47362
 20
15.93572
 30
 0
 11
9.47362
 21
15.65094
  0
ARC
  8
Gravur
 62
   7
 39
0.400
  6
CONTINUOUS
 10
8.76168
 20
15.65094
 30
 0
 40
0.71194
 50
-180.00000
 51
0.00000
  0
LINE
  8
Gravur
 62
   7
 39
0.400
  6
CONTINUOUS
 10
10.15773
 20
17.50200
 30
 0
 11
10.15773
 21
17.35961
  0
LINE
  8
Gravur
 62
   7
 39
0.400
  6
CONTINUOUS
 10
10.15773
 20
16.64767
 30
 0
 11
10.15773
 21
14.93900
  0
ARC
  8
Gravur
 62
   7
 39
0.400
  6
CONTINUOUS
 10
11.48751
 20
15.88645
 30
 0
 40
0.96757
 50
228.05192
 51
293.02344
  0
ARC
  8
Gravur
 62
   7
 39
0.400
  6
CONTINUOUS
 10
11.72350
 20
15.33235
 30
 0
 40
0.36530
 50
292.94873
 51
431.82316
  0
LINE
  8
Gravur
 62
   7
 39
0.400
  6
CONTINUOUS
 10
11.83746
 20
15.67942
 30
 0
 11
11.06856
 21
15.93572
  0
ARC
  8
Gravur
 62
   7
 39
0.400
  6
CONTINUOUS
 10
11.17113
 20
16.24722
 30
 0
 40
0.32795
 50
119.10762
 51
251.77304
  0
ARC
  8
Gravur
 62
   7
 39
0.400
  6
CONTINUOUS
 10
11.50795
 20
15.65549
 30
 0
 40
1.00882
 50
54.50145
 51
119.47297
  0
LINE
  8
Gravur
 62
   7
 39
0.400
  6
CONTINUOUS
 10
12.77673
 20
15.79433
 30
 0
 11
14.20062
 21
15.79433
  0
LINE
  8
Gravur
 62
   7
 39
0.400
  6
CONTINUOUS
 10
14.20062
 20
15.79433
 30
 0
 11
14.20062
 21
15.93672
  0
ARC
  8
Gravur
 62
   7
 39
0.400
  6
CONTINUOUS
 10
13.48868
 20
15.93672
 30
 0
 40
0.71194
 50
0.00000
 51
180.00000
  0
LINE
  8
Gravur
 62
   7
 39
0.400
  6
CONTINUOUS
 10
12.77673
 20
15.93672
 30
 0
 11
12.77673
 21
15.65194
  0
ARC
  8
Gravur
 62
   7
 39
0.400
  6
CONTINUOUS
 10
13.52331
 20
15.65135
 30
 0
 40
0.74658
 50
179.95424
 51
322.44599
  0
ARC
  8
Gravur
 62
   7
 39
0.400
  6
CONTINUOUS
 10
26.73000
 20
20.72000
 30
 0
 40
2.00000
 50
180.00000
 51
270.00000
  0
LINE
  8
Gravur
 62
   7
 39
0.400
  6
CONTINUOUS
 10
26.73000
 20
18.72000
 30
 0
 11
33.73000
 21
18.72000
  0
ARC
  8
Gravur
 62
   7
 39
0.400
  6
CONTINUOUS
 10
33.73000
 20
20.72000
 30
 0
 40
2.00000
 50
270.00000
 51
360.00000
  0
LINE
  8
Gravur
 62
   7
 39
0.400
  6
CONTINUOUS
 10
35.73000
 20
20.72000
 30
 0
 11
35.73000
 21
27.72000
  0
ARC
  8
Gravur
 62
   7
 39
0.400
  6
CONTINUOUS
 10
33.73000
 20
27.72000
 30
 0
 40
2.00000
 50
0.00000
 51
90.00000
  0
LINE
  8
Gravur
 62
   7
 39
0.400
  6
CONTINUOUS
 10
33.73000
 20
29.72000
 30
 0
 11
26.73000
 21
29.72000
  0
ARC
  8
Gravur
 62
   7
 39
0.400
  6
CONTINUOUS
 10
26.73000
 20
27.72000
 30
 0
 40
2.00000
 50
90.00000
 51
180.00000
  0
LINE
  8
Gravur
 62
   7
 39
0.400
  6
CONTINUOUS
 10
24.73000
 20
27.72000
 30
 0
 11
24.73000
 21
20.72000
  0
LINE
  8
Gravur
 62
   7
 39
0.400
  6
CONTINUOUS
 10
27.78173
 20
15.65094
 30
 0
 11
27.78173
 21
15.93572
  0
ARC
  8
Gravur
 62
   7
 39
0.400
  6
CONTINUOUS
 10
28.49368
 20
15.93572
 30
 0
 40
0.71194
 50
0.00000
 51
180.00000
  0
LINE
  8
Gravur
 62
   7
 39
0.400
  6
CONTINUOUS
 10
29.20562
 20
15.93572
 30
 0
 11
29.20562
 21
15.65094
  0
ARC
  8
Gravur
 62
   7
 39
0.400
  6
CONTINUOUS
 10
28.49368
 20
15.65094
 30
 0
 40
0.71194
 50
-180.00000
 51
0.00000
  0
LINE
  8
Gravur
 62
   7
 39
0.400
  6
CONTINUOUS
 10
29.88973
 20
16.64767
 30
 0
 11
29.88973
 21
15.65094
  0
ARC
  8
Gravur
 62
   7
 39
0.400
  6
CONTINUOUS
 10
30.60168
 20
15.65094
 30
 0
 40
0.71194
 50
180.00000
 51
360.00000
  0
LINE
  8
Gravur
 62
   7
 39
0.400
  6
CONTINUOUS
 10
31.31362
 20
15.65094
 30
 0
 11
31.31362
 21
14.93900
  0
LINE
  8
Gravur
 62
   7
 39
0.400
  6
CONTINUOUS
 10
31.31362
 20
14.93900
 30
 0
 11
31.31362
 21
16.64767
  0
LINE
  8
Gravur
 62
   7
 39
0.400
  6
CONTINUOUS
 10
32.25303
 20
17.50200
 30
 0
 11
32.25303
 21
16.64767
  0
LINE
  8
Gravur
 62
   7
 39
0.400
  6
CONTINUOUS
 10
32.25303
 20
16.64767
 30
 0
 11
32.68020
 21
16.64767
  0
LINE
  8
Gravur
 62
   7
 39
0.400
  6
CONTINUOUS
 10
32.68020
 20
16.64767
 30
 0
 11
31.96826
 21
16.64767
  0
LINE
  8
Gravur
 62
   7
 39
0.400
  6
CONTINUOUS
 10
31.96826
 20
16.64767
 30
 0
 11
32.25303
 21
16.64767
  0
LINE
  8
Gravur
 62
   7
 39
0.400
  6
CONTINUOUS
 10
32.25303
 20
16.64767
 30
 0
 11
32.25303
 21
15.28073
  0
ARC
  8
Gravur
 62
   7
 39
0.400
  6
CONTINUOUS
 10
32.60035
 20
15.28064
 30
 0
 40
0.34731
 50
179.98432
 51
259.62682
  0
ARC
  8
Gravur
 62
   255
 39
0.400
  6
CONTINUOUS
 10
6.57000
 20
101.07000
 30
 0
 40
2.00000
 50
180.00000
 51
270.00000
  0
LINE
  8
Gravur
 62
   255
 39
0.400
  6
CONTINUOUS
 10
6.57000
 20
99.07000
 30
 0
 11
13.57000
 21
99.07000
  0
ARC
  8
Gravur
 62
   255
 39
0.400
  6
CONTINUOUS
 10
13.57000
 20
101.07000
 30
 0
 40
2.00000
 50
270.00000
 51
360.00000
  0
LINE
  8
Gravur
 62
   255
 39
0.400
  6
CONTINUOUS
 10
15.57000
 20
101.07000
 30
 0
 11
15.57000
 21
108.07000
  0
ARC
  8
Gravur
 62
   255
 39
0.400
  6
CONTINUOUS
 10
13.57000
 20
108.07000
 30
 0
 40
2.00000
 50
0.00000
 51
90.00000
  0
LINE
  8
Gravur
 62
   255
 39
0.400
  6
CONTINUOUS
 10
13.57000
 20
110.07000
 30
 0
 11
6.57000
 21
110.07000
  0
ARC
  8
Gravur
 62
   255
 39
0.400
  6
CONTINUOUS
 10
6.57000
 20
108.07000
 30
 0
 40
2.00000
 50
90.00000
 51
180.00000
  0
LINE
  8
Gravur
 62
   255
 39
0.400
  6
CONTINUOUS
 10
4.57000
 20
108.07000
 30
 0
 11
4.57000
 21
101.07000
  0
LINE
  8
Gravur
 62
   7
 39
0.400
  6
CONTINUOUS
 10
9.01673
 20
98.85200
 30
 0
 11
9.01673
 21
98.70961
  0
LINE
  8
Gravur
 62
   7
 39
0.400
  6
CONTINUOUS
 10
9.01673
 20
97.99767
 30
 0
 11
9.01673
 21
96.28900
  0
LINE
  8
Gravur
 62
   7
 39
0.400
  6
CONTINUOUS
 10
9.70073
 20
96.28900
 30
 0
 11
9.70073
 21
97.99767
  0
LINE
  8
Gravur
 62
   7
 39
0.400
  6
CONTINUOUS
 10
9.70073
 20
97.99767
 30
 0
 11
9.70073
 21
97.28572
  0
ARC
  8
Gravur
 62
   7
 39
0.400
  6
CONTINUOUS
 10
10.41268
 20
97.28572
 30
 0
 40
0.71194
 50
0.00000
 51
180.00000
  0
LINE
  8
Gravur
 62
   7
 39
0.400
  6
CONTINUOUS
 10
11.12462
 20
97.28572
 30
 0
 11
11.12462
 21
96.28900
  0
LINE
  8
Gravur
 62
   7
 39
0.400
  6
CONTINUOUS
 10
25.22303
 20
99.28200
 30
 0
 11
25.22303
 21
98.42767
  0
LINE
  8
Gravur
 62
   7
 39
0.400
  6
CONTINUOUS
 10
25.22303
 20
98.42767
 30
 0
 11
25.65020
 21
98.42767
  0
LINE
  8
Gravur
 62
   7
 39
0.400
  6
CONTINUOUS
 10
25.65020
 20
98.42767
 30
 0
 11
24.93826
 21
98.42767
  0
LINE
  8
Gravur
 62
   7
 39
0.400
  6
CONTINUOUS
 10
24.93826
 20
98.42767
 30
 0
 11
25.22303
 21
98.42767
  0
LINE
  8
Gravur
 62
   7
 39
0.400
  6
CONTINUOUS
 10
25.22303
 20
98.42767
 30
 0
 11
25.22303
 21
97.06073
  0
ARC
  8
Gravur
 62
   7
 39
0.400
  6
CONTINUOUS
 10
25.57035
 20
97.06064
 30
 0
 40
0.34731
 50
179.98432
 51
259.62682
  0
LINE
  8
Gravur
 62
   7
 39
0.400
  6
CONTINUOUS
 10
26.33373
 20
96.71900
 30
 0
 11
26.33373
 21
98.42767
  0
LINE
  8
Gravur
 62
   7
 39
0.400
  6
CONTINUOUS
 10
26.33373
 20
98.42767
 30
 0
 11
26.33373
 21
97.85811
  0
ARC
  8
Gravur
 62
   7
 39
0.400
  6
CONTINUOUS
 10
26.96304
 20
97.85813
 30
 0
 40
0.62931
 50
140.69073
 51
180.00162
  0
ARC
  8
Gravur
 62
   7
 39
0.400
  6
CONTINUOUS
 10
26.78938
 20
97.99927
 30
 0
 40
0.40553
 50
39.42406
 51
140.57594
  0
LINE
  8
Gravur
 62
   7
 39
0.400
  6
CONTINUOUS
 10
27.75773
 20
99.28200
 30
 0
 11
27.75773
 21
99.13961
  0
LINE
  8
Gravur
 62
   7
 39
0.400
  6
CONTINUOUS
 10
27.75773
 20
98.42767
 30
 0
 11
27.75773
 21
96.71900
  0
LINE
  8
Gravur
 62
   7
 39
0.400
  6
CONTINUOUS
 10
29.86562
 20
98.42767
 30
 0
 11
29.86562
 21
97.43094
  0
ARC
  8
Gravur
 62
   7
 39
0.400
  6
CONTINUOUS
 10
29.15368
 20
97.40247
 30
 0
 40
0.71251
 50
-177.70939
 51
2.29061
  0
LINE
  8
Gravur
 62
   7
 39
0.400
  6
CONTINUOUS
 10
28.44173
 20
97.37399
 30
 0
 11
28.44173
 21
97.71572
  0
ARC
  8
Gravur
 62
   7
 39
0.400
  6
CONTINUOUS
 10
29.15368
 20
97.71572
 30
 0
 40
0.71194
 50
0.00000
 51
180.00000
  0
LINE
  8
Gravur
 62
   7
 39
0.400
  6
CONTINUOUS
 10
29.86562
 20
97.71572
 30
 0
 11
29.86562
 21
96.57661
  0
ARC
  8
Gravur
 62
   7
 39
0.400
  6
CONTINUOUS
 10
29.14765
 20
96.57282
 30
 0
 40
0.71798
 50
-134.87369
 51
0.30252
  0
LINE
  8
Gravur
 62
   7
 39
0.400
  6
CONTINUOUS
 10
31.97362
 20
98.42867
 30
 0
 11
31.97362
 21
97.43194
  0
ARC
  8
Gravur
 62
   7
 39
0.400
  6
CONTINUOUS
 10
31.26168
 20
97.40347
 30
 0
 40
0.71251
 50
-177.70939
 51
2.29061
  0
LINE
  8
Gravur
 62
   7
 39
0.400
  6
CONTINUOUS
 10
30.54973
 20
97.37499
 30
 0
 11
30.54973
 21
97.71672
  0
ARC
  8
Gravur
 62
   7
 39
0.400
  6
CONTINUOUS
 10
31.26168
 20
97.71672
 30
 0
 40
0.71194
 50
0.00000
 51
180.00000
  0
LINE
  8
Gravur
 62
   7
 39
0.400
  6
CONTINUOUS
 10
31.97362
 20
97.71672
 30
 0
 11
31.97362
 21
96.57761
  0
ARC
  8
Gravur
 62
   7
 39
0.400
  6
CONTINUOUS
 10
31.25565
 20
96.57382
 30
 0
 40
0.71798
 50
-134.87369
 51
0.30252
  0
LINE
  8
Gravur
 62
   7
 39
0.400
  6
CONTINUOUS
 10
32.65673
 20
97.57533
 30
 0
 11
34.08062
 21
97.57533
  0
LINE
  8
Gravur
 62
   7
 39
0.400
  6
CONTINUOUS
 10
34.08062
 20
97.57533
 30
 0
 11
34.08062
 21
97.71772
  0
ARC
  8
Gravur
 62
   7
 39
0.400
  6
CONTINUOUS
 10
33.36868
 20
97.71772
 30
 0
 40
0.71194
 50
0.00000
 51
180.00000
  0
LINE
  8
Gravur
 62
   7
 39
0.400
  6
CONTINUOUS
 10
32.65673
 20
97.71772
 30
 0
 11
32.65673
 21
97.43294
  0
ARC
  8
Gravur
 62
   7
 39
0.400
  6
CONTINUOUS
 10
33.40331
 20
97.43235
 30
 0
 40
0.74658
 50
179.95424
 51
322.44599
  0
LINE
  8
Gravur
 62
   7
 39
0.400
  6
CONTINUOUS
 10
34.76373
 20
96.72200
 30
 0
 11
34.76373
 21
98.43067
  0
LINE
  8
Gravur
 62
   7
 39
0.400
  6
CONTINUOUS
 10
34.76373
 20
98.43067
 30
 0
 11
34.76373
 21
97.86111
  0
ARC
  8
Gravur
 62
   7
 39
0.400
  6
CONTINUOUS
 10
35.39304
 20
97.86113
 30
 0
 40
0.62931
 50
140.69073
 51
180.00162
  0
ARC
  8
Gravur
 62
   7
 39
0.400
  6
CONTINUOUS
 10
35.21938
 20
98.00227
 30
 0
 40
0.40553
 50
39.42406
 51
140.57594
  0
ARC
  8
Gravur
 62
   255
 39
0.400
  6
CONTINUOUS
 10
26.73000
 20
101.50000
 30
 0
 40
2.00000
 50
180.00000
 51
270.00000
  0
LINE
  8
Gravur
 62
   255
 39
0.400
  6
CONTINUOUS
 10
26.73000
 20
99.50000
 30
 0
 11
33.73000
 21
99.50000
  0
ARC
  8
Gravur
 62
   255
 39
0.400
  6
CONTINUOUS
 10
33.73000
 20
101.50000
 30
 0
 40
2.00000
 50
270.00000
 51
360.00000
  0
LINE
  8
Gravur
 62
   255
 39
0.400
  6
CONTINUOUS
 10
35.73000
 20
101.50000
 30
 0
 11
35.73000
 21
108.50000
  0
ARC
  8
Gravur
 62
   255
 39
0.400
  6
CONTINUOUS
 10
33.73000
 20
108.50000
 30
 0
 40
2.00000
 50
0.00000
 51
90.00000
  0
LINE
  8
Gravur
 62
   255
 39
0.400
  6
CONTINUOUS
 10
33.73000
 20
110.50000
 30
 0
 11
26.73000
 21
110.50000
  0
ARC
  8
Gravur
 62
   255
 39
0.400
  6
CONTINUOUS
 10
26.73000
 20
108.50000
 30
 0
 40
2.00000
 50
90.00000
 51
180.00000
  0
LINE
  8
Gravur
 62
   255
 39
0.400
  6
CONTINUOUS
 10
24.73000
 20
108.50000
 30
 0
 11
24.73000
 21
101.50000
  0
CIRCLE
  8
Kontur
 62
   7
 39
0.100
  6
CONTINUOUS
 10
32.80000
 20
125.40000
 30
 0
 40
1.60000
  0
CIRCLE
  8
Kontur
 62
   7
 39
0.100
  6
CONTINUOUS
 10
7.50000
 20
125.40000
 30
 0
 40
1.60000
  0
CIRCLE
  8
Kontur
 62
   7
 39
0.100
  6
CONTINUOUS
 10
7.50000
 20
3.00000
 30
 0
 40
1.60000
  0
CIRCLE
  8
Kontur
 62
   7
 39
0.100
  6
CONTINUOUS
 10
32.80000
 20
3.00000
 30
 0
 40
1.60000
  0
CIRCLE
  8
Kontur
 62
   7
 39
0.100
  6
CONTINUOUS
 10
9.57000
 20
94.18000
 30
 0
 40
1.50000
  0
CIRCLE
  8
Kontur
 62
   7
 39
0.100
  6
CONTINUOUS
 10
9.57000
 20
84.18000
 30
 0
 40
4.00000
  0
CIRCLE
  8
Kontur
 62
   7
 39
0.100
  6
CONTINUOUS
 10
29.73000
 20
44.04000
 30
 0
 40
4.00000
  0
CIRCLE
  8
Kontur
 62
   7
 39
0.100
  6
CONTINUOUS
 10
9.57000
 20
44.04000
 30
 0
 40
4.00000
  0
CIRCLE
  8
Kontur
 62
   7
 39
0.100
  6
CONTINUOUS
 10
10.07000
 20
24.22000
 30
 0
 40
3.50000
  0
CIRCLE
  8
Kontur
 62
   7
 39
0.100
  6
CONTINUOUS
 10
30.23000
 20
24.22000
 30
 0
 40
3.50000
  0
CIRCLE
  8
Kontur
 62
   7
 39
0.100
  6
CONTINUOUS
 10
10.07000
 20
104.57000
 30
 0
 40
3.50000
  0
CIRCLE
  8
Kontur
 62
   7
 39
0.100
  6
CONTINUOUS
 10
30.23400
 20
105.00000
 30
 0
 40
3.50000
  0
LINE
  8
Bezugspunkte
 62
   1
 39
0.100
  6
CONTINUOUS
 10
-0.78800
 20
0.00000
 30
 0
 11
0.78800
 21
0.00000
  0
LINE
  8
Bezugspunkte
 62
   1
 39
0.100
  6
CONTINUOUS
 10
0.00000
 20
-0.78800
 30
 0
 11
0.00000
 21
0.78800
  0
LINE
  8
Bezugspunkte
 62
   1
 39
0.100
  6
CONTINUOUS
 10
19.36200
 20
118.49500
 30
 0
 11
20.93800
 21
118.49500
  0
LINE
  8
Bezugspunkte
 62
   1
 39
0.100
  6
CONTINUOUS
 10
20.15000
 20
117.70700
 30
 0
 11
20.15000
 21
119.28300
  0
LINE
  8
Bezugspunkte
 62
   1
 39
0.100
  6
CONTINUOUS
 10
19.36200
 20
112.70000
 30
 0
 11
20.93800
 21
112.70000
  0
LINE
  8
Bezugspunkte
 62
   1
 39
0.100
  6
CONTINUOUS
 10
20.15000
 20
111.91200
 30
 0
 11
20.15000
 21
113.48800
  0
LINE
  8
Bezugspunkte
 62
   1
 39
0.100
  6
CONTINUOUS
 10
19.36200
 20
125.39500
 30
 0
 11
20.93800
 21
125.39500
  0
LINE
  8
Bezugspunkte
 62
   1
 39
0.100
  6
CONTINUOUS
 10
20.15000
 20
124.60700
 30
 0
 11
20.15000
 21
126.18300
  0
LINE
  8
Bezugspunkte
 62
   1
 39
0.100
  6
CONTINUOUS
 10
32.01200
 20
125.40000
 30
 0
 11
33.58800
 21
125.40000
  0
LINE
  8
Bezugspunkte
 62
   1
 39
0.100
  6
CONTINUOUS
 10
32.80000
 20
124.61200
 30
 0
 11
32.80000
 21
126.18800
  0
LINE
  8
Bezugspunkte
 62
   1
 39
0.100
  6
CONTINUOUS
 10
6.71200
 20
125.40000
 30
 0
 11
8.28800
 21
125.40000
  0
LINE
  8
Bezugspunkte
 62
   1
 39
0.100
  6
CONTINUOUS
 10
7.50000
 20
124.61200
 30
 0
 11
7.50000
 21
126.18800
  0
LINE
  8
Bezugspunkte
 62
   1
 39
0.100
  6
CONTINUOUS
 10
19.36200
 20
3.00000
 30
 0
 11
20.93800
 21
3.00000
  0
LINE
  8
Bezugspunkte
 62
   1
 39
0.100
  6
CONTINUOUS
 10
20.15000
 20
2.21200
 30
 0
 11
20.15000
 21
3.78800
  0
LINE
  8
Bezugspunkte
 62
   1
 39
0.100
  6
CONTINUOUS
 10
6.71200
 20
3.00000
 30
 0
 11
8.28800
 21
3.00000
  0
LINE
  8
Bezugspunkte
 62
   1
 39
0.100
  6
CONTINUOUS
 10
7.50000
 20
2.21200
 30
 0
 11
7.50000
 21
3.78800
  0
LINE
  8
Bezugspunkte
 62
   1
 39
0.100
  6
CONTINUOUS
 10
32.01200
 20
3.00000
 30
 0
 11
33.58800
 21
3.00000
  0
LINE
  8
Bezugspunkte
 62
   1
 39
0.100
  6
CONTINUOUS
 10
32.80000
 20
2.21200
 30
 0
 11
32.80000
 21
3.78800
  0
LINE
  8
Bezugspunkte
 62
   1
 39
0.100
  6
CONTINUOUS
 10
8.78200
 20
94.18000
 30
 0
 11
10.35800
 21
94.18000
  0
LINE
  8
Bezugspunkte
 62
   1
 39
0.100
  6
CONTINUOUS
 10
9.57000
 20
93.39200
 30
 0
 11
9.57000
 21
94.96800
  0
LINE
  8
Bezugspunkte
 62
   1
 39
0.100
  6
CONTINUOUS
 10
8.78200
 20
76.18000
 30
 0
 11
10.35800
 21
76.18000
  0
LINE
  8
Bezugspunkte
 62
   1
 39
0.100
  6
CONTINUOUS
 10
9.57000
 20
75.39200
 30
 0
 11
9.57000
 21
76.96800
  0
LINE
  8
Bezugspunkte
 62
   1
 39
0.100
  6
CONTINUOUS
 10
8.78200
 20
84.18000
 30
 0
 11
10.35800
 21
84.18000
  0
LINE
  8
Bezugspunkte
 62
   1
 39
0.100
  6
CONTINUOUS
 10
9.57000
 20
83.39200
 30
 0
 11
9.57000
 21
84.96800
  0
LINE
  8
Bezugspunkte
 62
   1
 39
0.100
  6
CONTINUOUS
 10
28.94200
 20
36.04000
 30
 0
 11
30.51800
 21
36.04000
  0
LINE
  8
Bezugspunkte
 62
   1
 39
0.100
  6
CONTINUOUS
 10
29.73000
 20
35.25200
 30
 0
 11
29.73000
 21
36.82800
  0
LINE
  8
Bezugspunkte
 62
   1
 39
0.100
  6
CONTINUOUS
 10
28.94200
 20
44.04000
 30
 0
 11
30.51800
 21
44.04000
  0
LINE
  8
Bezugspunkte
 62
   1
 39
0.100
  6
CONTINUOUS
 10
29.73000
 20
43.25200
 30
 0
 11
29.73000
 21
44.82800
  0
LINE
  8
Bezugspunkte
 62
   1
 39
0.100
  6
CONTINUOUS
 10
28.94300
 20
40.86900
 30
 0
 11
30.51900
 21
40.86900
  0
LINE
  8
Bezugspunkte
 62
   1
 39
0.100
  6
CONTINUOUS
 10
29.73100
 20
40.08100
 30
 0
 11
29.73100
 21
41.65700
  0
LINE
  8
Bezugspunkte
 62
   1
 39
0.100
  6
CONTINUOUS
 10
8.78200
 20
36.04000
 30
 0
 11
10.35800
 21
36.04000
  0
LINE
  8
Bezugspunkte
 62
   1
 39
0.100
  6
CONTINUOUS
 10
9.57000
 20
35.25200
 30
 0
 11
9.57000
 21
36.82800
  0
LINE
  8
Bezugspunkte
 62
   1
 39
0.100
  6
CONTINUOUS
 10
8.78200
 20
44.04000
 30
 0
 11
10.35800
 21
44.04000
  0
LINE
  8
Bezugspunkte
 62
   1
 39
0.100
  6
CONTINUOUS
 10
9.57000
 20
43.25200
 30
 0
 11
9.57000
 21
44.82800
  0
LINE
  8
Bezugspunkte
 62
   1
 39
0.100
  6
CONTINUOUS
 10
8.78200
 20
41.28900
 30
 0
 11
10.35800
 21
41.28900
  0
LINE
  8
Bezugspunkte
 62
   1
 39
0.100
  6
CONTINUOUS
 10
9.57000
 20
40.50100
 30
 0
 11
9.57000
 21
42.07700
  0
LINE
  8
Bezugspunkte
 62
   1
 39
0.100
  6
CONTINUOUS
 10
9.28200
 20
24.22000
 30
 0
 11
10.85800
 21
24.22000
  0
LINE
  8
Bezugspunkte
 62
   1
 39
0.100
  6
CONTINUOUS
 10
10.07000
 20
23.43200
 30
 0
 11
10.07000
 21
25.00800
  0
LINE
  8
Bezugspunkte
 62
   1
 39
0.100
  6
CONTINUOUS
 10
9.28200
 20
24.22000
 30
 0
 11
10.85800
 21
24.22000
  0
LINE
  8
Bezugspunkte
 62
   1
 39
0.100
  6
CONTINUOUS
 10
10.07000
 20
23.43200
 30
 0
 11
10.07000
 21
25.00800
  0
LINE
  8
Bezugspunkte
 62
   1
 39
0.100
  6
CONTINUOUS
 10
9.28200
 20
16.22000
 30
 0
 11
10.85800
 21
16.22000
  0
LINE
  8
Bezugspunkte
 62
   1
 39
0.100
  6
CONTINUOUS
 10
10.07000
 20
15.43200
 30
 0
 11
10.07000
 21
17.00800
  0
LINE
  8
Bezugspunkte
 62
   1
 39
0.100
  6
CONTINUOUS
 10
9.28200
 20
22.31200
 30
 0
 11
10.85800
 21
22.31200
  0
LINE
  8
Bezugspunkte
 62
   1
 39
0.100
  6
CONTINUOUS
 10
10.07000
 20
21.52400
 30
 0
 11
10.07000
 21
23.10000
  0
LINE
  8
Bezugspunkte
 62
   1
 39
0.100
  6
CONTINUOUS
 10
29.44200
 20
24.22000
 30
 0
 11
31.01800
 21
24.22000
  0
LINE
  8
Bezugspunkte
 62
   1
 39
0.100
  6
CONTINUOUS
 10
30.23000
 20
23.43200
 30
 0
 11
30.23000
 21
25.00800
  0
LINE
  8
Bezugspunkte
 62
   1
 39
0.100
  6
CONTINUOUS
 10
29.44200
 20
24.22000
 30
 0
 11
31.01800
 21
24.22000
  0
LINE
  8
Bezugspunkte
 62
   1
 39
0.100
  6
CONTINUOUS
 10
30.23000
 20
23.43200
 30
 0
 11
30.23000
 21
25.00800
  0
LINE
  8
Bezugspunkte
 62
   1
 39
0.100
  6
CONTINUOUS
 10
29.44200
 20
16.22000
 30
 0
 11
31.01800
 21
16.22000
  0
LINE
  8
Bezugspunkte
 62
   1
 39
0.100
  6
CONTINUOUS
 10
30.23000
 20
15.43200
 30
 0
 11
30.23000
 21
17.00800
  0
LINE
  8
Bezugspunkte
 62
   1
 39
0.100
  6
CONTINUOUS
 10
29.44200
 20
22.32900
 30
 0
 11
31.01800
 21
22.32900
  0
LINE
  8
Bezugspunkte
 62
   1
 39
0.100
  6
CONTINUOUS
 10
30.23000
 20
21.54100
 30
 0
 11
30.23000
 21
23.11700
  0
LINE
  8
Bezugspunkte
 62
   1
 39
0.100
  6
CONTINUOUS
 10
9.28200
 20
104.57000
 30
 0
 11
10.85800
 21
104.57000
  0
LINE
  8
Bezugspunkte
 62
   1
 39
0.100
  6
CONTINUOUS
 10
10.07000
 20
103.78200
 30
 0
 11
10.07000
 21
105.35800
  0
LINE
  8
Bezugspunkte
 62
   1
 39
0.100
  6
CONTINUOUS
 10
9.28200
 20
104.57000
 30
 0
 11
10.85800
 21
104.57000
  0
LINE
  8
Bezugspunkte
 62
   1
 39
0.100
  6
CONTINUOUS
 10
10.07000
 20
103.78200
 30
 0
 11
10.07000
 21
105.35800
  0
LINE
  8
Bezugspunkte
 62
   1
 39
0.100
  6
CONTINUOUS
 10
9.28200
 20
97.57000
 30
 0
 11
10.85800
 21
97.57000
  0
LINE
  8
Bezugspunkte
 62
   1
 39
0.100
  6
CONTINUOUS
 10
10.07000
 20
96.78200
 30
 0
 11
10.07000
 21
98.35800
  0
LINE
  8
Bezugspunkte
 62
   1
 39
0.100
  6
CONTINUOUS
 10
29.44600
 20
105.00000
 30
 0
 11
31.02200
 21
105.00000
  0
LINE
  8
Bezugspunkte
 62
   1
 39
0.100
  6
CONTINUOUS
 10
30.23400
 20
104.21200
 30
 0
 11
30.23400
 21
105.78800
  0
LINE
  8
Bezugspunkte
 62
   1
 39
0.100
  6
CONTINUOUS
 10
29.44600
 20
98.00000
 30
 0
 11
31.02200
 21
98.00000
  0
LINE
  8
Bezugspunkte
 62
   1
 39
0.100
  6
CONTINUOUS
 10
30.23400
 20
97.21200
 30
 0
 11
30.23400
 21
98.78800
  0
LINE
  8
Bezugspunkte
 62
   1
 39
0.100
  6
CONTINUOUS
 10
29.44200
 20
105.00000
 30
 0
 11
31.01800
 21
105.00000
  0
LINE
  8
Bezugspunkte
 62
   1
 39
0.100
  6
CONTINUOUS
 10
30.23000
 20
104.21200
 30
 0
 11
30.23000
 21
105.78800
  0
ENDSEC
  0
EOF
