<?xml version="1.0" standalone="no"?>
<!DOCTYPE svg PUBLIC "-//W3C//DTD SVG 1.1//EN" 
  "http://www.w3.org/Graphics/SVG/1.1/DTD/svg11.dtd">
<svg width="40.300mm" height="128.400mm" version="1.1"
     viewBox="0 0 40.300 128.400"
     xmlns="http://www.w3.org/2000/svg"  xmlns:xlink="http://www.w3.org/1999/xlink" 
     xmlns:fpd="http://www.schaeffer-ag.de">
  <desc>Diese Zeichnung wurde mit dem Frontplatten Desinger durch den Export der Datei 'Wilson.fpd' erzeugt.</desc>
  <defs>
    <pattern id="revside-fill" x="1" y="1" width="1.5" height="1.5" patternUnits="userSpaceOnUse">
      <line x1="0" y1="0" x2="1" y2="1" style="stroke-width:0.2; stroke:black; stroke-dasharray:none;" />
      <line x1="0" y1="1" x2="1" y2="0" style="stroke-width:0.2; stroke:black; stroke-dasharray:none;" />
    </pattern>
    <pattern id="revside-fill-silver" x="1" y="1" width="1.5" height="1.5" patternUnits="userSpaceOnUse">
      <line x1="0" y1="0" x2="1.5" y2="1.5" style="stroke-width:0.2; stroke:#e0e0e0; stroke-dasharray:none;" />
      <line x1="0" y1="1.5" x2="1.5" y2="0" style="stroke-width:0.2; stroke:#e0e0e0; stroke-dasharray:none;" />
    </pattern>
  </defs>
<g transform="scale(1,-1) translate( -0.000, -128.400)" 
   fill-rule="evenodd"
   style="stroke-linecap:round; stroke-linejoin:round; stroke-opacity:1.0; stroke-opacity:1.0;">
<path d="
M40.300 128.400
L40.300 0.000
L0.000 0.000
L0.000 128.400
L40.300 128.400
" 
fill="#cccccc" vector-effect="non-scaling-stroke" stroke="#000000" stroke-width="0.100mm" />
<path d="
M0.000 123.102
A0.500,0.500 0 0,1 0.707,122.395
L39.593 122.395
A0.500,0.500 0 0,1 40.300,123.102
L40.300 127.688
A0.500,0.500 0 0,1 39.593,128.395
L0.707 128.395
A0.500,0.500 0 0,1 0.000,127.688
L0.000 123.102
" 
fill="#dbebfc" vector-effect="non-scaling-stroke" stroke="#336887" stroke-width="0.100mm" />
<path d="
M0.000 0.707
A0.500,0.500 0 0,1 0.707,0.000
L39.593 0.000
A0.500,0.500 0 0,1 40.300,0.707
L40.300 5.293
A0.500,0.500 0 0,1 39.593,6.000
L0.707 6.000
A0.500,0.500 0 0,1 0.000,5.293
L0.000 0.707
" 
fill="#dbebfc" vector-effect="non-scaling-stroke" stroke="#336887" stroke-width="0.100mm" />
<path d="
M2.057 119.653
L3.974 119.653
" 
fill="none" vector-effect="non-scaling-stroke" stroke="#ffffff" stroke-width="0.400mm" fpd:engraving_ral_9010="1" />
<path d="
M1.674 118.695
L3.016 122.145
L4.357 118.695
" 
fill="none" vector-effect="non-scaling-stroke" stroke="#ffffff" stroke-width="0.400mm" fpd:engraving_ral_9010="1" />
<path d="
M5.278 118.695
L5.278 120.995
L5.278 120.037
A0.958,0.958 0 0,0 7.195,120.037
L7.195 118.695
" 
fill="none" vector-effect="non-scaling-stroke" stroke="#ffffff" stroke-width="0.400mm" fpd:engraving_ral_9010="1" />
<path d="
M8.115 119.652
L8.115 120.036
A0.958,0.958 0 0,0 10.032,120.036
L10.032 119.652
A0.958,0.958 0 0,0 8.115,119.652
" 
fill="none" vector-effect="non-scaling-stroke" stroke="#ffffff" stroke-width="0.400mm" fpd:engraving_ral_9010="1" />
<path d="
M10.952 122.144
L10.952 121.952
" 
fill="none" vector-effect="non-scaling-stroke" stroke="#ffffff" stroke-width="0.400mm" fpd:engraving_ral_9010="1" />
<path d="
M10.952 120.994
L10.952 118.694
" 
fill="none" vector-effect="non-scaling-stroke" stroke="#ffffff" stroke-width="0.400mm" fpd:engraving_ral_9010="1" />
<path d="
M11.872 122.144
L11.872 118.694
L11.872 119.461
L13.789 120.994
L12.639 120.074
L13.789 118.694
" 
fill="none" vector-effect="non-scaling-stroke" stroke="#ffffff" stroke-width="0.400mm" fpd:engraving_ral_9010="1" />
<path d="
M14.709 122.144
L14.709 121.952
" 
fill="none" vector-effect="non-scaling-stroke" stroke="#ffffff" stroke-width="0.400mm" fpd:engraving_ral_9010="1" />
<path d="
M14.709 120.994
L14.709 118.694
" 
fill="none" vector-effect="non-scaling-stroke" stroke="#ffffff" stroke-width="0.400mm" fpd:engraving_ral_9010="1" />
<path d="
M15.629 119.001
A1.302,1.302 0 0,1 17.009,118.771
A0.492,0.492 0 0,1 16.971,119.691
L15.936 120.036
A0.441,0.441 0 0,0 15.859,120.841
A1.358,1.358 0 0,0 17.316,120.764
" 
fill="none" vector-effect="non-scaling-stroke" stroke="#ffffff" stroke-width="0.400mm" fpd:engraving_ral_9010="1" />
<path d="
M20.689 118.694
L20.689 122.144
L22.989 118.694
L22.989 122.144
" 
fill="none" vector-effect="non-scaling-stroke" stroke="#ffffff" stroke-width="0.400mm" fpd:engraving_ral_9010="1" />
<path d="
M23.909 119.652
L23.909 120.036
A0.958,0.958 0 0,0 25.826,120.036
L25.826 119.652
A0.958,0.958 0 0,0 23.909,119.652
" 
fill="none" vector-effect="non-scaling-stroke" stroke="#ffffff" stroke-width="0.400mm" fpd:engraving_ral_9010="1" />
<path d="
M26.745 118.694
L26.745 120.994
L26.745 120.227
A0.767,0.767 0 0,0 28.278,120.227
L28.278 118.694
L28.278 120.227
A0.767,0.767 0 0,0 29.812,120.227
L29.812 118.694
" 
fill="none" vector-effect="non-scaling-stroke" stroke="#ffffff" stroke-width="0.400mm" fpd:engraving_ral_9010="1" />
<path d="
M32.724 120.993
L32.724 119.651
A0.997,0.997 0 0,0 30.731,119.651
L30.731 120.035
A0.997,0.997 0 0,0 32.724,120.035
L32.724 119.115
A0.558,0.558 0 0,1 33.184,118.616
" 
fill="none" vector-effect="non-scaling-stroke" stroke="#ffffff" stroke-width="0.400mm" fpd:engraving_ral_9010="1" />
<path d="
M36.021 122.142
L36.021 119.650
A0.959,0.959 0 0,0 34.104,119.574
L34.104 120.034
A0.958,0.958 0 0,0 36.021,120.034
L36.021 118.692
" 
fill="none" vector-effect="non-scaling-stroke" stroke="#ffffff" stroke-width="0.400mm" fpd:engraving_ral_9010="1" />
<path d="
M36.940 118.998
A1.302,1.302 0 0,1 38.320,118.768
A0.492,0.492 0 0,1 38.282,119.688
L37.247 120.033
A0.441,0.441 0 0,0 37.170,120.838
A1.358,1.358 0 0,0 38.627,120.761
" 
fill="none" vector-effect="non-scaling-stroke" stroke="#ffffff" stroke-width="0.400mm" fpd:engraving_ral_9010="1" />
<path d="
M11.216 117.300
L12.411 113.000
L13.605 117.300
L14.800 113.000
L15.994 117.300
" 
fill="none" vector-effect="non-scaling-stroke" stroke="#000000" stroke-width="0.600mm" fpd:engraving_ral_9005="1" />
<path d="
M17.141 117.300
L17.141 117.061
" 
fill="none" vector-effect="non-scaling-stroke" stroke="#000000" stroke-width="0.600mm" fpd:engraving_ral_9005="1" />
<path d="
M17.141 115.867
L17.141 113.000
" 
fill="none" vector-effect="non-scaling-stroke" stroke="#000000" stroke-width="0.600mm" fpd:engraving_ral_9005="1" />
<path d="
M18.288 117.300
L18.288 113.573
A0.583,0.583 0 0,1 18.766,113.000
" 
fill="none" vector-effect="non-scaling-stroke" stroke="#000000" stroke-width="0.600mm" fpd:engraving_ral_9005="1" />
<path d="
M19.913 113.382
A1.623,1.623 0 0,1 21.633,113.096
A0.613,0.613 0 0,1 21.586,114.242
L20.296 114.672
A0.550,0.550 0 0,0 20.200,115.676
A1.693,1.693 0 0,0 22.016,115.580
" 
fill="none" vector-effect="non-scaling-stroke" stroke="#000000" stroke-width="0.600mm" fpd:engraving_ral_9005="1" />
<path d="
M23.161 114.194
L23.161 114.672
A1.194,1.194 0 0,0 25.550,114.672
L25.550 114.194
A1.194,1.194 0 0,0 23.161,114.194
" 
fill="none" vector-effect="non-scaling-stroke" stroke="#000000" stroke-width="0.600mm" fpd:engraving_ral_9005="1" />
<path d="
M26.696 113.000
L26.696 115.867
L26.696 114.672
A1.194,1.194 0 0,0 29.085,114.672
L29.085 113.000
" 
fill="none" vector-effect="non-scaling-stroke" stroke="#000000" stroke-width="0.600mm" fpd:engraving_ral_9005="1" />
<path d="
M6.553 76.380
A0.706,0.706 0 0,1 5.329,75.896
L5.329 75.611
A0.707,0.707 0 0,1 6.639,75.241
" 
fill="none" vector-effect="non-scaling-stroke" stroke="#000000" stroke-width="0.400mm" fpd:engraving_ral_9005="1" />
<path d="
M7.323 77.462
L7.323 75.241
A0.347,0.347 0 0,1 7.608,74.899
" 
fill="none" vector-effect="non-scaling-stroke" stroke="#000000" stroke-width="0.400mm" fpd:engraving_ral_9005="1" />
<path d="
M8.292 75.611
L8.292 75.896
A0.712,0.712 0 0,0 9.716,75.896
L9.716 75.611
A0.712,0.712 0 0,0 8.292,75.611
" 
fill="none" vector-effect="non-scaling-stroke" stroke="#000000" stroke-width="0.400mm" fpd:engraving_ral_9005="1" />
<path d="
M11.623 76.380
A0.706,0.706 0 0,1 10.399,75.896
L10.399 75.611
A0.707,0.707 0 0,1 11.709,75.241
" 
fill="none" vector-effect="non-scaling-stroke" stroke="#000000" stroke-width="0.400mm" fpd:engraving_ral_9005="1" />
<path d="
M12.392 77.462
L12.392 74.899
L12.392 75.469
L13.816 76.608
L12.961 75.924
L13.816 74.899
" 
fill="none" vector-effect="non-scaling-stroke" stroke="#000000" stroke-width="0.400mm" fpd:engraving_ral_9005="1" />
<path d="
M6.211 71.513
L6.211 73.222
L6.211 72.652
A0.629,0.629 0 0,0 6.353,73.051
A0.406,0.406 0 0,0 6.980,73.051
" 
fill="none" vector-effect="non-scaling-stroke" stroke="#000000" stroke-width="0.400mm" fpd:engraving_ral_9005="1" />
<path d="
M9.116 73.222
L9.116 72.225
A0.740,0.740 0 0,0 7.635,72.225
L7.635 72.510
A0.740,0.740 0 0,0 9.116,72.510
L9.116 71.826
A0.415,0.415 0 0,1 9.457,71.456
" 
fill="none" vector-effect="non-scaling-stroke" stroke="#000000" stroke-width="0.400mm" fpd:engraving_ral_9005="1" />
<path d="
M10.397 74.076
L10.397 73.222
L10.824 73.222
L10.112 73.222
L10.397 73.222
L10.397 71.855
A0.347,0.347 0 0,1 10.682,71.513
" 
fill="none" vector-effect="non-scaling-stroke" stroke="#000000" stroke-width="0.400mm" fpd:engraving_ral_9005="1" />
<path d="
M11.507 72.367
L12.931 72.367
L12.931 72.510
A0.712,0.712 0 0,1 11.507,72.510
L11.507 72.225
A0.747,0.747 0 0,1 12.845,71.769
" 
fill="none" vector-effect="non-scaling-stroke" stroke="#000000" stroke-width="0.400mm" fpd:engraving_ral_9005="1" />
<path d="
M24.947 34.759
L24.947 36.468
L24.947 35.898
A0.629,0.629 0 0,0 25.089,36.297
A0.406,0.406 0 0,0 25.716,36.297
" 
fill="none" vector-effect="non-scaling-stroke" stroke="#000000" stroke-width="0.400mm" fpd:engraving_ral_9005="1" />
<path d="
M27.852 36.468
L27.852 35.471
A0.740,0.740 0 0,0 26.371,35.471
L26.371 35.756
A0.740,0.740 0 0,0 27.852,35.756
L27.852 35.072
A0.415,0.415 0 0,1 28.193,34.702
" 
fill="none" vector-effect="non-scaling-stroke" stroke="#000000" stroke-width="0.400mm" fpd:engraving_ral_9005="1" />
<path d="
M28.878 34.760
L28.878 36.469
L28.878 35.757
A0.712,0.712 0 0,0 30.302,35.757
L30.302 34.760
" 
fill="none" vector-effect="non-scaling-stroke" stroke="#000000" stroke-width="0.400mm" fpd:engraving_ral_9005="1" />
<path d="
M32.409 36.469
L32.409 35.472
A0.713,0.713 0 0,0 30.985,35.415
L30.985 35.757
A0.712,0.712 0 0,0 32.409,35.757
L32.409 34.618
A0.718,0.718 0 0,0 31.184,34.105
" 
fill="none" vector-effect="non-scaling-stroke" stroke="#000000" stroke-width="0.400mm" fpd:engraving_ral_9005="1" />
<path d="
M33.092 35.615
L34.516 35.615
L34.516 35.758
A0.712,0.712 0 0,1 33.092,35.758
L33.092 35.473
A0.747,0.747 0 0,1 34.430,35.017
" 
fill="none" vector-effect="non-scaling-stroke" stroke="#000000" stroke-width="0.400mm" fpd:engraving_ral_9005="1" />
<path d="
M6.182 34.987
A0.968,0.968 0 0,1 7.207,34.816
A0.365,0.365 0 0,1 7.178,35.499
L6.410 35.756
A0.328,0.328 0 0,0 6.353,36.354
A1.009,1.009 0 0,0 7.435,36.297
" 
fill="none" vector-effect="non-scaling-stroke" stroke="#000000" stroke-width="0.400mm" fpd:engraving_ral_9005="1" />
<path d="
M8.119 37.323
L8.119 34.760
L8.119 35.757
A0.712,0.712 0 0,0 9.543,35.757
L9.543 34.760
" 
fill="none" vector-effect="non-scaling-stroke" stroke="#000000" stroke-width="0.400mm" fpd:engraving_ral_9005="1" />
<path d="
M10.226 37.323
L10.226 37.181
" 
fill="none" vector-effect="non-scaling-stroke" stroke="#000000" stroke-width="0.400mm" fpd:engraving_ral_9005="1" />
<path d="
M10.226 36.469
L10.226 34.760
" 
fill="none" vector-effect="non-scaling-stroke" stroke="#000000" stroke-width="0.400mm" fpd:engraving_ral_9005="1" />
<path d="
M10.880 36.469
L11.592 36.469
" 
fill="none" vector-effect="non-scaling-stroke" stroke="#000000" stroke-width="0.400mm" fpd:engraving_ral_9005="1" />
<path d="
M11.592 37.323
A0.425,0.425 0 0,1 11.165,36.896
L11.165 34.760
" 
fill="none" vector-effect="non-scaling-stroke" stroke="#000000" stroke-width="0.400mm" fpd:engraving_ral_9005="1" />
<path d="
M12.531 37.323
L12.531 36.469
L12.958 36.469
L12.246 36.469
L12.531 36.469
L12.531 35.102
A0.347,0.347 0 0,1 12.816,34.760
" 
fill="none" vector-effect="non-scaling-stroke" stroke="#000000" stroke-width="0.400mm" fpd:engraving_ral_9005="1" />
<path d="
M4.570 20.720
A2.000,2.000 0 0,1 6.570,18.720
L13.570 18.720
A2.000,2.000 0 0,1 15.570,20.720
L15.570 27.720
A2.000,2.000 0 0,1 13.570,29.720
L6.570 29.720
A2.000,2.000 0 0,1 4.570,27.720
L4.570 20.720
" 
fill="none" vector-effect="non-scaling-stroke" stroke="#000000" stroke-width="0.400mm" fpd:engraving_ral_9005="1" />
<path d="
M5.942 14.939
L5.942 16.648
L5.942 15.936
A0.712,0.712 0 0,0 7.366,15.936
L7.366 14.939
" 
fill="none" vector-effect="non-scaling-stroke" stroke="#000000" stroke-width="0.400mm" fpd:engraving_ral_9005="1" />
<path d="
M8.050 15.651
L8.050 15.936
A0.712,0.712 0 0,0 9.474,15.936
L9.474 15.651
A0.712,0.712 0 0,0 8.050,15.651
" 
fill="none" vector-effect="non-scaling-stroke" stroke="#000000" stroke-width="0.400mm" fpd:engraving_ral_9005="1" />
<path d="
M10.158 17.502
L10.158 17.360
" 
fill="none" vector-effect="non-scaling-stroke" stroke="#000000" stroke-width="0.400mm" fpd:engraving_ral_9005="1" />
<path d="
M10.158 16.648
L10.158 14.939
" 
fill="none" vector-effect="non-scaling-stroke" stroke="#000000" stroke-width="0.400mm" fpd:engraving_ral_9005="1" />
<path d="
M10.841 15.167
A0.968,0.968 0 0,1 11.866,14.996
A0.365,0.365 0 0,1 11.837,15.679
L11.069 15.936
A0.328,0.328 0 0,0 11.012,16.534
A1.009,1.009 0 0,0 12.094,16.477
" 
fill="none" vector-effect="non-scaling-stroke" stroke="#000000" stroke-width="0.400mm" fpd:engraving_ral_9005="1" />
<path d="
M12.777 15.794
L14.201 15.794
L14.201 15.937
A0.712,0.712 0 0,1 12.777,15.937
L12.777 15.652
A0.747,0.747 0 0,1 14.115,15.196
" 
fill="none" vector-effect="non-scaling-stroke" stroke="#000000" stroke-width="0.400mm" fpd:engraving_ral_9005="1" />
<path d="
M24.730 20.720
A2.000,2.000 0 0,1 26.730,18.720
L33.730 18.720
A2.000,2.000 0 0,1 35.730,20.720
L35.730 27.720
A2.000,2.000 0 0,1 33.730,29.720
L26.730 29.720
A2.000,2.000 0 0,1 24.730,27.720
L24.730 20.720
" 
fill="none" vector-effect="non-scaling-stroke" stroke="#000000" stroke-width="0.400mm" fpd:engraving_ral_9005="1" />
<path d="
M27.782 15.651
L27.782 15.936
A0.712,0.712 0 0,0 29.206,15.936
L29.206 15.651
A0.712,0.712 0 0,0 27.782,15.651
" 
fill="none" vector-effect="non-scaling-stroke" stroke="#000000" stroke-width="0.400mm" fpd:engraving_ral_9005="1" />
<path d="
M29.890 16.648
L29.890 15.651
A0.712,0.712 0 0,1 31.314,15.651
L31.314 14.939
L31.314 16.648
" 
fill="none" vector-effect="non-scaling-stroke" stroke="#000000" stroke-width="0.400mm" fpd:engraving_ral_9005="1" />
<path d="
M32.253 17.502
L32.253 16.648
L32.680 16.648
L31.968 16.648
L32.253 16.648
L32.253 15.281
A0.347,0.347 0 0,1 32.538,14.939
" 
fill="none" vector-effect="non-scaling-stroke" stroke="#000000" stroke-width="0.400mm" fpd:engraving_ral_9005="1" />
<path d="
M4.570 101.070
A2.000,2.000 0 0,1 6.570,99.070
L13.570 99.070
A2.000,2.000 0 0,1 15.570,101.070
L15.570 108.070
A2.000,2.000 0 0,1 13.570,110.070
L6.570 110.070
A2.000,2.000 0 0,1 4.570,108.070
L4.570 101.070
" 
fill="none" vector-effect="non-scaling-stroke" stroke="#ffffff" stroke-width="0.400mm" fpd:engraving_ral_9010="1" />
<path d="
M9.017 98.852
L9.017 98.710
" 
fill="none" vector-effect="non-scaling-stroke" stroke="#000000" stroke-width="0.400mm" fpd:engraving_ral_9005="1" />
<path d="
M9.017 97.998
L9.017 96.289
" 
fill="none" vector-effect="non-scaling-stroke" stroke="#000000" stroke-width="0.400mm" fpd:engraving_ral_9005="1" />
<path d="
M9.701 96.289
L9.701 97.998
L9.701 97.286
A0.712,0.712 0 0,0 11.125,97.286
L11.125 96.289
" 
fill="none" vector-effect="non-scaling-stroke" stroke="#000000" stroke-width="0.400mm" fpd:engraving_ral_9005="1" />
<path d="
M25.223 99.282
L25.223 98.428
L25.650 98.428
L24.938 98.428
L25.223 98.428
L25.223 97.061
A0.347,0.347 0 0,1 25.508,96.719
" 
fill="none" vector-effect="non-scaling-stroke" stroke="#000000" stroke-width="0.400mm" fpd:engraving_ral_9005="1" />
<path d="
M26.334 96.719
L26.334 98.428
L26.334 97.858
A0.629,0.629 0 0,0 26.476,98.257
A0.406,0.406 0 0,0 27.103,98.257
" 
fill="none" vector-effect="non-scaling-stroke" stroke="#000000" stroke-width="0.400mm" fpd:engraving_ral_9005="1" />
<path d="
M27.758 99.282
L27.758 99.140
" 
fill="none" vector-effect="non-scaling-stroke" stroke="#000000" stroke-width="0.400mm" fpd:engraving_ral_9005="1" />
<path d="
M27.758 98.428
L27.758 96.719
" 
fill="none" vector-effect="non-scaling-stroke" stroke="#000000" stroke-width="0.400mm" fpd:engraving_ral_9005="1" />
<path d="
M29.866 98.428
L29.866 97.431
A0.713,0.713 0 0,0 28.442,97.374
L28.442 97.716
A0.712,0.712 0 0,0 29.866,97.716
L29.866 96.577
A0.718,0.718 0 0,0 28.641,96.064
" 
fill="none" vector-effect="non-scaling-stroke" stroke="#000000" stroke-width="0.400mm" fpd:engraving_ral_9005="1" />
<path d="
M31.974 98.429
L31.974 97.432
A0.713,0.713 0 0,0 30.550,97.375
L30.550 97.717
A0.712,0.712 0 0,0 31.974,97.717
L31.974 96.578
A0.718,0.718 0 0,0 30.749,96.065
" 
fill="none" vector-effect="non-scaling-stroke" stroke="#000000" stroke-width="0.400mm" fpd:engraving_ral_9005="1" />
<path d="
M32.657 97.575
L34.081 97.575
L34.081 97.718
A0.712,0.712 0 0,1 32.657,97.718
L32.657 97.433
A0.747,0.747 0 0,1 33.995,96.977
" 
fill="none" vector-effect="non-scaling-stroke" stroke="#000000" stroke-width="0.400mm" fpd:engraving_ral_9005="1" />
<path d="
M34.764 96.722
L34.764 98.431
L34.764 97.861
A0.629,0.629 0 0,0 34.906,98.260
A0.406,0.406 0 0,0 35.533,98.260
" 
fill="none" vector-effect="non-scaling-stroke" stroke="#000000" stroke-width="0.400mm" fpd:engraving_ral_9005="1" />
<path d="
M24.730 101.500
A2.000,2.000 0 0,1 26.730,99.500
L33.730 99.500
A2.000,2.000 0 0,1 35.730,101.500
L35.730 108.500
A2.000,2.000 0 0,1 33.730,110.500
L26.730 110.500
A2.000,2.000 0 0,1 24.730,108.500
L24.730 101.500
" 
fill="none" vector-effect="non-scaling-stroke" stroke="#ffffff" stroke-width="0.400mm" fpd:engraving_ral_9010="1" />
<path d="
M31.200 125.400
A1.600,1.600 0 1,0 34.400,125.400
A1.600,1.600 0 1,0 31.200,125.400
" 
fill="#ffffff" vector-effect="non-scaling-stroke" stroke="#000000" stroke-width="0.100mm" />
<path d="
M5.900 125.400
A1.600,1.600 0 1,0 9.100,125.400
A1.600,1.600 0 1,0 5.900,125.400
" 
fill="#ffffff" vector-effect="non-scaling-stroke" stroke="#000000" stroke-width="0.100mm" />
<path d="
M5.900 3.000
A1.600,1.600 0 1,0 9.100,3.000
A1.600,1.600 0 1,0 5.900,3.000
" 
fill="#ffffff" vector-effect="non-scaling-stroke" stroke="#000000" stroke-width="0.100mm" />
<path d="
M31.200 3.000
A1.600,1.600 0 1,0 34.400,3.000
A1.600,1.600 0 1,0 31.200,3.000
" 
fill="#ffffff" vector-effect="non-scaling-stroke" stroke="#000000" stroke-width="0.100mm" />
<path d="
M8.070 94.180
A1.500,1.500 0 1,0 11.070,94.180
A1.500,1.500 0 1,0 8.070,94.180
" 
fill="#ffffff" vector-effect="non-scaling-stroke" stroke="#000000" stroke-width="0.100mm" />
<path d="
M5.570 84.180
A4.000,4.000 0 1,0 13.570,84.180
A4.000,4.000 0 1,0 5.570,84.180
" 
fill="#ffffff" vector-effect="non-scaling-stroke" stroke="#000000" stroke-width="0.100mm" />
<path d="
M25.730 44.040
A4.000,4.000 0 1,0 33.730,44.040
A4.000,4.000 0 1,0 25.730,44.040
" 
fill="#ffffff" vector-effect="non-scaling-stroke" stroke="#000000" stroke-width="0.100mm" />
<path d="
M5.570 44.040
A4.000,4.000 0 1,0 13.570,44.040
A4.000,4.000 0 1,0 5.570,44.040
" 
fill="#ffffff" vector-effect="non-scaling-stroke" stroke="#000000" stroke-width="0.100mm" />
<path d="
M6.570 24.220
A3.500,3.500 0 1,0 13.570,24.220
A3.500,3.500 0 1,0 6.570,24.220
" 
fill="#ffffff" vector-effect="non-scaling-stroke" stroke="#000000" stroke-width="0.100mm" />
<path d="
M26.730 24.220
A3.500,3.500 0 1,0 33.730,24.220
A3.500,3.500 0 1,0 26.730,24.220
" 
fill="#ffffff" vector-effect="non-scaling-stroke" stroke="#000000" stroke-width="0.100mm" />
<path d="
M6.570 104.570
A3.500,3.500 0 1,0 13.570,104.570
A3.500,3.500 0 1,0 6.570,104.570
" 
fill="#ffffff" vector-effect="non-scaling-stroke" stroke="#000000" stroke-width="0.100mm" />
<path d="
M26.734 105.000
A3.500,3.500 0 1,0 33.734,105.000
A3.500,3.500 0 1,0 26.734,105.000
" 
fill="#ffffff" vector-effect="non-scaling-stroke" stroke="#000000" stroke-width="0.100mm" />
<path d="
M40.300 128.400
L40.300 0.000
L0.000 0.000
L0.000 128.400
L40.300 128.400
" 
fill="none" vector-effect="non-scaling-stroke" stroke="#000000" stroke-width="0.100mm" />
<path d="
M-0.788 0.000
L0.788 0.000
M0.000 -0.788
L0.000 0.788
" 
fill="none" vector-effect="non-scaling-stroke" stroke="#ff0000" stroke-width="0.100mm" />
<path d="
M19.362 118.495
L20.938 118.495
M20.150 117.707
L20.150 119.283
" 
fill="none" vector-effect="non-scaling-stroke" stroke="#ff0000" stroke-width="0.100mm" />
<path d="
M19.362 112.700
L20.938 112.700
M20.150 111.912
L20.150 113.488
" 
fill="none" vector-effect="non-scaling-stroke" stroke="#ff0000" stroke-width="0.100mm" />
<path d="
M19.362 125.395
L20.938 125.395
M20.150 124.607
L20.150 126.183
" 
fill="none" vector-effect="non-scaling-stroke" stroke="#ff0000" stroke-width="0.100mm" />
<path d="
M32.012 125.400
L33.588 125.400
M32.800 124.612
L32.800 126.188
" 
fill="none" vector-effect="non-scaling-stroke" stroke="#ff0000" stroke-width="0.100mm" />
<path d="
M6.712 125.400
L8.288 125.400
M7.500 124.612
L7.500 126.188
" 
fill="none" vector-effect="non-scaling-stroke" stroke="#ff0000" stroke-width="0.100mm" />
<path d="
M19.362 3.000
L20.938 3.000
M20.150 2.212
L20.150 3.788
" 
fill="none" vector-effect="non-scaling-stroke" stroke="#ff0000" stroke-width="0.100mm" />
<path d="
M6.712 3.000
L8.288 3.000
M7.500 2.212
L7.500 3.788
" 
fill="none" vector-effect="non-scaling-stroke" stroke="#ff0000" stroke-width="0.100mm" />
<path d="
M32.012 3.000
L33.588 3.000
M32.800 2.212
L32.800 3.788
" 
fill="none" vector-effect="non-scaling-stroke" stroke="#ff0000" stroke-width="0.100mm" />
<path d="
M8.782 94.180
L10.358 94.180
M9.570 93.392
L9.570 94.968
" 
fill="none" vector-effect="non-scaling-stroke" stroke="#ff0000" stroke-width="0.100mm" />
<path d="
M8.782 76.180
L10.358 76.180
M9.570 75.392
L9.570 76.968
" 
fill="none" vector-effect="non-scaling-stroke" stroke="#ff0000" stroke-width="0.100mm" />
<path d="
M8.782 84.180
L10.358 84.180
M9.570 83.392
L9.570 84.968
" 
fill="none" vector-effect="non-scaling-stroke" stroke="#ff0000" stroke-width="0.100mm" />
<path d="
M28.942 36.040
L30.518 36.040
M29.730 35.252
L29.730 36.828
" 
fill="none" vector-effect="non-scaling-stroke" stroke="#00d000" stroke-width="0.100mm" />
<path d="
M28.942 44.040
L30.518 44.040
M29.730 43.252
L29.730 44.828
" 
fill="none" vector-effect="non-scaling-stroke" stroke="#00d000" stroke-width="0.100mm" />
<path d="
M28.943 40.869
L30.519 40.869
M29.731 40.081
L29.731 41.657
" 
fill="none" vector-effect="non-scaling-stroke" stroke="#ff0000" stroke-width="0.100mm" />
<path d="
M8.782 36.040
L10.358 36.040
M9.570 35.252
L9.570 36.828
" 
fill="none" vector-effect="non-scaling-stroke" stroke="#00d000" stroke-width="0.100mm" />
<path d="
M8.782 44.040
L10.358 44.040
M9.570 43.252
L9.570 44.828
" 
fill="none" vector-effect="non-scaling-stroke" stroke="#00d000" stroke-width="0.100mm" />
<path d="
M8.782 41.289
L10.358 41.289
M9.570 40.501
L9.570 42.077
" 
fill="none" vector-effect="non-scaling-stroke" stroke="#ff0000" stroke-width="0.100mm" />
<path d="
M9.282 24.220
L10.858 24.220
M10.070 23.432
L10.070 25.008
" 
fill="none" vector-effect="non-scaling-stroke" stroke="#00d000" stroke-width="0.100mm" />
<path d="
M9.282 24.220
L10.858 24.220
M10.070 23.432
L10.070 25.008
" 
fill="none" vector-effect="non-scaling-stroke" stroke="#00d000" stroke-width="0.100mm" />
<path d="
M9.282 16.220
L10.858 16.220
M10.070 15.432
L10.070 17.008
" 
fill="none" vector-effect="non-scaling-stroke" stroke="#00d000" stroke-width="0.100mm" />
<path d="
M9.282 22.312
L10.858 22.312
M10.070 21.524
L10.070 23.100
" 
fill="none" vector-effect="non-scaling-stroke" stroke="#ff0000" stroke-width="0.100mm" />
<path d="
M29.442 24.220
L31.018 24.220
M30.230 23.432
L30.230 25.008
" 
fill="none" vector-effect="non-scaling-stroke" stroke="#00d000" stroke-width="0.100mm" />
<path d="
M29.442 24.220
L31.018 24.220
M30.230 23.432
L30.230 25.008
" 
fill="none" vector-effect="non-scaling-stroke" stroke="#00d000" stroke-width="0.100mm" />
<path d="
M29.442 16.220
L31.018 16.220
M30.230 15.432
L30.230 17.008
" 
fill="none" vector-effect="non-scaling-stroke" stroke="#00d000" stroke-width="0.100mm" />
<path d="
M29.442 22.329
L31.018 22.329
M30.230 21.541
L30.230 23.117
" 
fill="none" vector-effect="non-scaling-stroke" stroke="#ff0000" stroke-width="0.100mm" />
<path d="
M9.282 104.570
L10.858 104.570
M10.070 103.782
L10.070 105.358
" 
fill="none" vector-effect="non-scaling-stroke" stroke="#ff0000" stroke-width="0.100mm" />
<path d="
M9.282 104.570
L10.858 104.570
M10.070 103.782
L10.070 105.358
" 
fill="none" vector-effect="non-scaling-stroke" stroke="#ff0000" stroke-width="0.100mm" />
<path d="
M9.282 97.570
L10.858 97.570
M10.070 96.782
L10.070 98.358
" 
fill="none" vector-effect="non-scaling-stroke" stroke="#ff0000" stroke-width="0.100mm" />
<path d="
M29.446 105.000
L31.022 105.000
M30.234 104.212
L30.234 105.788
" 
fill="none" vector-effect="non-scaling-stroke" stroke="#ff0000" stroke-width="0.100mm" />
<path d="
M29.446 98.000
L31.022 98.000
M30.234 97.212
L30.234 98.788
" 
fill="none" vector-effect="non-scaling-stroke" stroke="#ff0000" stroke-width="0.100mm" />
<path d="
M29.442 105.000
L31.018 105.000
M30.230 104.212
L30.230 105.788
" 
fill="none" vector-effect="non-scaling-stroke" stroke="#ff0000" stroke-width="0.100mm" />
</g>
</svg>
