<?xml version="1.0" encoding="UTF-8" standalone="no"?>
<svg
   xmlns:fpd="http://www.schaeffer-ag.de"
   xmlns:dc="http://purl.org/dc/elements/1.1/"
   xmlns:cc="http://creativecommons.org/ns#"
   xmlns:rdf="http://www.w3.org/1999/02/22-rdf-syntax-ns#"
   xmlns:svg="http://www.w3.org/2000/svg"
   xmlns="http://www.w3.org/2000/svg"
   xmlns:sodipodi="http://sodipodi.sourceforge.net/DTD/sodipodi-0.dtd"
   xmlns:inkscape="http://www.inkscape.org/namespaces/inkscape"
   width="80.300003mm"
   height="188.39999mm"
   version="1.1"
   viewBox="0 0 80.300005 188.4"
   id="svg2199"
   sodipodi:docname="Wilson_silkscreen.svg"
   inkscape:version="0.92.3 (2405546, 2018-03-11)">
  <metadata
     id="metadata2203">
    <rdf:RDF>
      <cc:Work
         rdf:about="">
        <dc:format>image/svg+xml</dc:format>
        <dc:type
           rdf:resource="http://purl.org/dc/dcmitype/StillImage" />
        <dc:title />
      </cc:Work>
    </rdf:RDF>
  </metadata>
  <sodipodi:namedview
     pagecolor="#ffffff"
     bordercolor="#666666"
     borderopacity="1"
     objecttolerance="10"
     gridtolerance="10"
     guidetolerance="10"
     inkscape:pageopacity="0"
     inkscape:pageshadow="2"
     inkscape:window-width="1920"
     inkscape:window-height="1057"
     id="namedview2201"
     showgrid="false"
     inkscape:zoom="5.5019223"
     inkscape:cx="182.15281"
     inkscape:cy="173.00113"
     inkscape:window-x="1912"
     inkscape:window-y="1432"
     inkscape:window-maximized="1"
     inkscape:current-layer="svg2199" />
  <desc
     id="desc1951">Diese Zeichnung wurde mit dem Frontplatten Desinger durch den Export der Datei 'Wilson.fpd' erzeugt.</desc>
  <defs
     id="defs1963">
    <pattern
       id="revside-fill"
       x="1"
       y="1"
       width="1.5"
       height="1.5"
       patternUnits="userSpaceOnUse">
      <line
         x1="0"
         y1="0"
         x2="1"
         y2="1"
         style="stroke-width:0.2; stroke:black; stroke-dasharray:none;"
         id="line1953" />
      <line
         x1="0"
         y1="1"
         x2="1"
         y2="0"
         style="stroke-width:0.2; stroke:black; stroke-dasharray:none;"
         id="line1955" />
    </pattern>
    <pattern
       id="revside-fill-silver"
       x="1"
       y="1"
       width="1.5"
       height="1.5"
       patternUnits="userSpaceOnUse">
      <line
         x1="0"
         y1="0"
         x2="1.5"
         y2="1.5"
         style="stroke-width:0.2; stroke:#e0e0e0; stroke-dasharray:none;"
         id="line1958" />
      <line
         x1="0"
         y1="1.5"
         x2="1.5"
         y2="0"
         style="stroke-width:0.2; stroke:#e0e0e0; stroke-dasharray:none;"
         id="line1960" />
    </pattern>
  </defs>
  <path
     style="vector-effect:non-scaling-stroke;fill:none;fill-rule:evenodd;stroke:#000000;stroke-width:0.1mm;stroke-linecap:round;stroke-linejoin:round;stroke-opacity:1"
     inkscape:connector-curvature="0"
     id="path1965"
     d="M 59.879179,36.187484 V 164.58735 H 19.579173 V 36.187484 h 40.300006" />
  <path
     style="vector-effect:non-scaling-stroke;fill:#000000;fill-rule:evenodd;stroke:#000000;stroke-width:0.26458334;stroke-linecap:round;stroke-linejoin:round;stroke-opacity:1;stroke-miterlimit:4;stroke-dasharray:none;fill-opacity:1"
     inkscape:connector-curvature="0"
     id="path2059"
     fpd:engraving_ral_9005="1"
     d="m 24.149176,143.86735 a 2,2 0 0 0 2.000001,2 h 7.000002 a 2,2 0 0 0 2,-2 v -7 a 2,2 0 0 0 -2,-2 h -7.000002 a 2,2 0 0 0 -2.000001,2 v 7" />
  <path
     style="vector-effect:non-scaling-stroke;fill:#000000;fill-rule:evenodd;stroke:#000000;stroke-width:0.26458334;stroke-linecap:round;stroke-linejoin:round;stroke-opacity:1;stroke-miterlimit:4;stroke-dasharray:none;fill-opacity:1"
     inkscape:connector-curvature="0"
     id="path2073"
     fpd:engraving_ral_9005="1"
     d="m 44.309179,143.86735 a 2,2 0 0 0 2,2 h 7 a 2,2 0 0 0 2,-2 v -7 a 2,2 0 0 0 -2,-2 h -7 a 2,2 0 0 0 -2,2 v 7" />
  <path
     style="vector-effect:non-scaling-stroke;fill:none;fill-rule:evenodd;stroke:#ffffff;stroke-width:0.4mm;stroke-linecap:round;stroke-linejoin:round;stroke-opacity:1"
     inkscape:connector-curvature="0"
     id="path2081"
     fpd:engraving_ral_9010="1"
     d="m 24.149176,63.517484 a 2,2 0 0 0 2.000001,2 h 7.000002 a 2,2 0 0 0 2,-2 v -7 a 2,2 0 0 0 -2,-2 h -7.000002 a 2,2 0 0 0 -2.000001,2 v 7" />
  <path
     style="vector-effect:non-scaling-stroke;fill:none;fill-rule:evenodd;stroke:#ffffff;stroke-width:0.4mm;stroke-linecap:round;stroke-linejoin:round;stroke-opacity:1"
     inkscape:connector-curvature="0"
     id="path2105"
     fpd:engraving_ral_9010="1"
     d="m 44.309179,63.087484 a 2,2 0 0 0 2,2 h 7 a 2,2 0 0 0 2,-2 v -7 a 2,2 0 0 0 -2,-2 h -7 a 2,2 0 0 0 -2,2 v 7" />
  <path
     style="vector-effect:non-scaling-stroke;fill:#ffffff;fill-rule:evenodd;stroke:#000000;stroke-width:0.1000125;stroke-linecap:round;stroke-linejoin:round;stroke-opacity:1;stroke-miterlimit:4;stroke-dasharray:none"
     inkscape:connector-curvature="0"
     id="path2107"
     d="m 50.779179,39.187484 a 1.6,1.6 0 1 1 3.2,0 1.6,1.6 0 1 1 -3.2,0" />
  <path
     style="vector-effect:non-scaling-stroke;fill:#ffffff;fill-rule:evenodd;stroke:#000000;stroke-width:0.1000125;stroke-linecap:round;stroke-linejoin:round;stroke-opacity:1;stroke-miterlimit:4;stroke-dasharray:none"
     inkscape:connector-curvature="0"
     id="path2109"
     d="m 25.479177,39.187484 a 1.6000006,1.6000006 0 1 1 3.200001,0 1.6000005,1.6000005 0 1 1 -3.200001,0" />
  <path
     style="vector-effect:non-scaling-stroke;fill:#ffffff;fill-rule:evenodd;stroke:#000000;stroke-width:0.1000125;stroke-linecap:round;stroke-linejoin:round;stroke-opacity:1;stroke-miterlimit:4;stroke-dasharray:none"
     inkscape:connector-curvature="0"
     id="path2111"
     d="m 25.479177,161.58735 a 1.6000006,1.6000006 0 1 1 3.200001,0 1.6000005,1.6000005 0 1 1 -3.200001,0" />
  <path
     style="vector-effect:non-scaling-stroke;fill:#ffffff;fill-rule:evenodd;stroke:#000000;stroke-width:0.1000125;stroke-linecap:round;stroke-linejoin:round;stroke-opacity:1;stroke-miterlimit:4;stroke-dasharray:none"
     inkscape:connector-curvature="0"
     id="path2113"
     d="m 50.779179,161.58735 a 1.6,1.6 0 1 1 3.2,0 1.6,1.6 0 1 1 -3.2,0" />
  <path
     style="vector-effect:non-scaling-stroke;fill:#ffffff;fill-rule:evenodd;stroke:#000000;stroke-width:0.1000125;stroke-linecap:round;stroke-linejoin:round;stroke-opacity:1;stroke-miterlimit:4;stroke-dasharray:none"
     inkscape:connector-curvature="0"
     id="path2115"
     d="m 27.649178,70.407484 a 1.5000005,1.5000005 0 1 1 3.000001,0 1.5000005,1.5000005 0 1 1 -3.000001,0" />
  <path
     style="vector-effect:non-scaling-stroke;fill:#ffffff;fill-rule:evenodd;stroke:#000000;stroke-width:0.1000125;stroke-linecap:round;stroke-linejoin:round;stroke-opacity:1;stroke-miterlimit:4;stroke-dasharray:none"
     inkscape:connector-curvature="0"
     id="path2117"
     d="m 25.149176,80.407464 a 4.0000015,4.0000015 0 1 1 8.000003,0 4.0000015,4.0000015 0 1 1 -8.000003,0" />
  <path
     style="vector-effect:non-scaling-stroke;fill:#ffffff;fill-rule:evenodd;stroke:#000000;stroke-width:0.1000125;stroke-linecap:round;stroke-linejoin:round;stroke-opacity:1;stroke-miterlimit:4;stroke-dasharray:none"
     inkscape:connector-curvature="0"
     id="path2119"
     d="m 45.309179,120.54735 a 4,4 0 1 1 8,0 4,4 0 1 1 -8,0" />
  <path
     style="vector-effect:non-scaling-stroke;fill:#ffffff;fill-rule:evenodd;stroke:#000000;stroke-width:0.1000125;stroke-linecap:round;stroke-linejoin:round;stroke-opacity:1;stroke-miterlimit:4;stroke-dasharray:none"
     inkscape:connector-curvature="0"
     id="path2121"
     d="m 25.149176,120.54735 a 4.0000015,4.0000015 0 1 1 8.000003,0 4.0000015,4.0000015 0 1 1 -8.000003,0" />
  <path
     style="vector-effect:non-scaling-stroke;fill:#ffffff;fill-rule:evenodd;stroke:#000000;stroke-width:0.1000125;stroke-linecap:round;stroke-linejoin:round;stroke-opacity:1;stroke-miterlimit:4;stroke-dasharray:none"
     inkscape:connector-curvature="0"
     id="path2123"
     d="m 26.149177,140.36735 a 3.500001,3.500001 0 1 1 7.000002,0 3.500001,3.500001 0 1 1 -7.000002,0" />
  <path
     style="vector-effect:non-scaling-stroke;fill:#ffffff;fill-rule:evenodd;stroke:#000000;stroke-width:0.1000125;stroke-linecap:round;stroke-linejoin:round;stroke-opacity:1;stroke-miterlimit:4;stroke-dasharray:none"
     inkscape:connector-curvature="0"
     id="path2125"
     d="m 46.309179,140.36735 a 3.5,3.5 0 1 1 7,0 3.5,3.5 0 1 1 -7,0" />
  <path
     style="vector-effect:non-scaling-stroke;fill:#ffffff;fill-rule:evenodd;stroke:#000000;stroke-width:0.1000125;stroke-linecap:round;stroke-linejoin:round;stroke-opacity:1;stroke-miterlimit:4;stroke-dasharray:none"
     inkscape:connector-curvature="0"
     id="path2127"
     d="m 26.149177,60.017484 a 3.500001,3.500001 0 1 1 7.000002,0 3.500001,3.500001 0 1 1 -7.000002,0" />
  <path
     style="vector-effect:non-scaling-stroke;fill:#ffffff;fill-rule:evenodd;stroke:#000000;stroke-width:0.1000125;stroke-linecap:round;stroke-linejoin:round;stroke-opacity:1;stroke-miterlimit:4;stroke-dasharray:none"
     inkscape:connector-curvature="0"
     id="path2129"
     d="m 46.313179,59.587484 a 3.5,3.5 0 1 1 7,0 3.5,3.5 0 1 1 -7,0" />
  <path
     style="vector-effect:non-scaling-stroke;fill:none;fill-rule:evenodd;stroke:#000000;stroke-width:0.1000125;stroke-linecap:round;stroke-linejoin:round;stroke-opacity:1;stroke-miterlimit:4;stroke-dasharray:none"
     inkscape:connector-curvature="0"
     id="path2131"
     d="M 59.879179,36.187484 V 164.58735 H 19.579173 V 36.187484 h 40.300006" />
  <text
     xml:space="preserve"
     style="font-style:normal;font-variant:normal;font-weight:normal;font-stretch:normal;font-size:4.23333359px;line-height:1.25;font-family:WarHeliosCondCBold;-inkscape-font-specification:WarHeliosCondCBold;text-align:center;letter-spacing:0px;word-spacing:0px;text-anchor:middle;fill:none;fill-opacity:1;stroke:#000000;stroke-width:0.13229167;stroke-miterlimit:4;stroke-dasharray:none;stroke-opacity:1"
     x="39.838593"
     y="45.80394"
     id="text914"><tspan
       sodipodi:role="line"
       id="tspan912"
       x="39.838593"
       y="45.80394"
       style="font-style:normal;font-variant:normal;font-weight:normal;font-stretch:normal;font-size:4.93888903px;font-family:WarHeliosCondCBold;-inkscape-font-specification:WarHeliosCondCBold;text-align:center;text-anchor:middle;fill:none;stroke:#000000;stroke-width:0.13229167;stroke-miterlimit:4;stroke-dasharray:none;stroke-opacity:1">Anoikis Nomads</tspan></text>
  <text
     xml:space="preserve"
     style="font-style:normal;font-variant:normal;font-weight:normal;font-stretch:normal;font-size:6.35000038px;line-height:1.25;font-family:WarHeliosCondCBold;-inkscape-font-specification:WarHeliosCondCBold;text-align:center;letter-spacing:0px;word-spacing:0px;text-anchor:middle;fill:#000000;fill-opacity:1;stroke:#000000;stroke-width:0.13229167;stroke-miterlimit:4;stroke-dasharray:none;stroke-opacity:1"
     x="39.838593"
     y="51.521057"
     id="text914-8"><tspan
       sodipodi:role="line"
       id="tspan912-7"
       x="39.838593"
       y="51.521057"
       style="font-style:normal;font-variant:normal;font-weight:normal;font-stretch:normal;font-size:6.35000038px;font-family:WarHeliosCondCBold;-inkscape-font-specification:WarHeliosCondCBold;text-align:center;text-anchor:middle;fill:#000000;fill-opacity:1;stroke:#000000;stroke-width:0.13229167;stroke-miterlimit:4;stroke-dasharray:none;stroke-opacity:1">Wilson</tspan></text>
  <text
     xml:space="preserve"
     style="font-style:normal;font-variant:normal;font-weight:normal;font-stretch:normal;font-size:3.52777791px;line-height:1.25;font-family:WarHeliosCondCBold;-inkscape-font-specification:WarHeliosCondCBold;text-align:center;letter-spacing:0px;word-spacing:0px;text-anchor:middle;fill:#000000;fill-opacity:1;stroke:none;stroke-width:0.26458335"
     x="33.454254"
     y="69.099373"
     id="text914-9"><tspan
       sodipodi:role="line"
       id="tspan912-0"
       x="33.454254"
       y="69.099373"
       style="font-style:normal;font-variant:normal;font-weight:normal;font-stretch:normal;font-size:3.52777791px;font-family:WarHeliosCondCBold;-inkscape-font-specification:WarHeliosCondCBold;text-align:center;text-anchor:middle;stroke-width:0.26458335">in</tspan></text>
  <text
     xml:space="preserve"
     style="font-style:normal;font-variant:normal;font-weight:normal;font-stretch:normal;font-size:3.52777791px;line-height:1.25;font-family:WarHeliosCondCBold;-inkscape-font-specification:WarHeliosCondCBold;text-align:center;letter-spacing:0px;word-spacing:0px;text-anchor:middle;fill:#000000;fill-opacity:1;stroke:none;stroke-width:0.26458335"
     x="49.778923"
     y="69.090782"
     id="text914-9-6"><tspan
       sodipodi:role="line"
       id="tspan912-0-3"
       x="49.778923"
       y="69.090782"
       style="font-style:normal;font-variant:normal;font-weight:normal;font-stretch:normal;font-size:3.52777791px;font-family:WarHeliosCondCBold;-inkscape-font-specification:WarHeliosCondCBold;text-align:center;text-anchor:middle;stroke-width:0.26458335">trigger</tspan></text>
  <text
     xml:space="preserve"
     style="font-style:normal;font-variant:normal;font-weight:normal;font-stretch:normal;font-size:3.52777791px;line-height:1.25;font-family:WarHeliosCondCBold;-inkscape-font-specification:WarHeliosCondCBold;text-align:center;letter-spacing:0px;word-spacing:0px;text-anchor:middle;fill:#000000;fill-opacity:1;stroke:none;stroke-width:0.26458335"
     x="28.977001"
     y="129.85168"
     id="text914-9-9"><tspan
       sodipodi:role="line"
       id="tspan912-0-8"
       x="28.977001"
       y="129.85168"
       style="font-style:normal;font-variant:normal;font-weight:normal;font-stretch:normal;font-size:3.52777791px;font-family:WarHeliosCondCBold;-inkscape-font-specification:WarHeliosCondCBold;text-align:center;text-anchor:middle;stroke-width:0.26458335">shift</tspan></text>
  <text
     xml:space="preserve"
     style="font-style:normal;font-variant:normal;font-weight:normal;font-stretch:normal;font-size:3.52777791px;line-height:1.25;font-family:WarHeliosCondCBold;-inkscape-font-specification:WarHeliosCondCBold;text-align:center;letter-spacing:0px;word-spacing:0px;text-anchor:middle;fill:#000000;fill-opacity:1;stroke:none;stroke-width:0.26458335"
     x="49.396545"
     y="129.8857"
     id="text914-9-1"><tspan
       sodipodi:role="line"
       id="tspan912-0-1"
       x="49.396545"
       y="129.8857"
       style="font-style:normal;font-variant:normal;font-weight:normal;font-stretch:normal;font-size:3.52777791px;font-family:WarHeliosCondCBold;-inkscape-font-specification:WarHeliosCondCBold;text-align:center;text-anchor:middle;stroke-width:0.26458335">range</tspan></text>
  <text
     xml:space="preserve"
     style="font-style:normal;font-variant:normal;font-weight:normal;font-stretch:normal;font-size:3.52777791px;line-height:1.25;font-family:WarHeliosCondCBold;-inkscape-font-specification:WarHeliosCondCBold;text-align:center;letter-spacing:0px;word-spacing:0px;text-anchor:middle;fill:#000000;fill-opacity:1;stroke:none;stroke-width:0.26458335"
     x="29.621185"
     y="149.66107"
     id="text914-9-2"><tspan
       sodipodi:role="line"
       id="tspan912-0-9"
       x="29.621185"
       y="149.66107"
       style="font-style:normal;font-variant:normal;font-weight:normal;font-stretch:normal;font-size:3.52777791px;font-family:WarHeliosCondCBold;-inkscape-font-specification:WarHeliosCondCBold;text-align:center;text-anchor:middle;stroke-width:0.26458335">noise</tspan></text>
  <text
     xml:space="preserve"
     style="font-style:normal;font-variant:normal;font-weight:normal;font-stretch:normal;font-size:3.52777791px;line-height:1.25;font-family:WarHeliosCondCBold;-inkscape-font-specification:WarHeliosCondCBold;text-align:center;letter-spacing:0px;word-spacing:0px;text-anchor:middle;fill:#000000;fill-opacity:1;stroke:none;stroke-width:0.26458335"
     x="49.736588"
     y="149.60815"
     id="text914-9-7"><tspan
       sodipodi:role="line"
       id="tspan912-0-99"
       x="49.736588"
       y="149.60815"
       style="font-style:normal;font-variant:normal;font-weight:normal;font-stretch:normal;font-size:3.52777791px;font-family:WarHeliosCondCBold;-inkscape-font-specification:WarHeliosCondCBold;text-align:center;text-anchor:middle;stroke-width:0.26458335">out</tspan></text>
  <text
     xml:space="preserve"
     style="font-style:normal;font-variant:normal;font-weight:normal;font-stretch:normal;font-size:3.52777791px;line-height:0.80000001;font-family:WarHeliosCondCBold;-inkscape-font-specification:WarHeliosCondCBold;text-align:center;letter-spacing:0px;word-spacing:0px;text-anchor:middle;fill:#000000;fill-opacity:1;stroke:none;stroke-width:0.26458335"
     x="29.164854"
     y="89.690018"
     id="text914-9-3"><tspan
       sodipodi:role="line"
       x="29.164854"
       y="89.690018"
       style="font-style:normal;font-variant:normal;font-weight:normal;font-stretch:normal;font-size:3.52777791px;line-height:0.80000001;font-family:WarHeliosCondCBold;-inkscape-font-specification:WarHeliosCondCBold;text-align:center;text-anchor:middle;stroke-width:0.26458335"
       id="tspan1086">clock</tspan><tspan
       sodipodi:role="line"
       x="29.164854"
       y="92.512238"
       style="font-style:normal;font-variant:normal;font-weight:normal;font-stretch:normal;font-size:3.52777791px;line-height:0.80000001;font-family:WarHeliosCondCBold;-inkscape-font-specification:WarHeliosCondCBold;text-align:center;text-anchor:middle;stroke-width:0.26458335"
       id="tspan3059">rate</tspan></text>
  <path
     style="vector-effect:non-scaling-stroke;fill:none;fill-rule:evenodd;stroke:#000000;stroke-width:0.26458334;stroke-linecap:round;stroke-linejoin:round;stroke-miterlimit:4;stroke-dasharray:none;stroke-opacity:1"
     inkscape:connector-curvature="0"
     id="path2059-6"
     fpd:engraving_ral_9005="1"
     d="m 24.149126,63.54734 a 2,2 0 0 0 2.000001,2 h 7.000002 a 2,2 0 0 0 2,-2 v -7 a 2,2 0 0 0 -2,-2 h -7.000002 a 2,2 0 0 0 -2.000001,2 v 7" />
  <path
     style="vector-effect:non-scaling-stroke;fill:none;fill-rule:evenodd;stroke:#000000;stroke-width:0.26458334;stroke-linecap:round;stroke-linejoin:round;stroke-miterlimit:4;stroke-dasharray:none;stroke-opacity:1"
     inkscape:connector-curvature="0"
     id="path2059-4"
     fpd:engraving_ral_9005="1"
     d="m 44.309054,63.54734 a 2,2 0 0 0 2.000001,2 h 7.000002 a 2,2 0 0 0 2,-2 v -7 a 2,2 0 0 0 -2,-2 h -7.000002 a 2,2 0 0 0 -2.000001,2 v 7" />
</svg>
